<svg width="41" height="56" viewBox="0 0 41 56" fill="none" xmlns="http://www.w3.org/2000/svg">
    <mask id="d5prh0m81a" style="mask-type:luminance" maskUnits="userSpaceOnUse" x="0" y="0" width="41" height="55">
        <path fill-rule="evenodd" clip-rule="evenodd" d="M0 .873h40.12v53.43H0V.873z" fill="#fff"/>
    </mask>
    <g mask="url(#d5prh0m81a)">
        <path fill-rule="evenodd" clip-rule="evenodd" d="M1.682 52.621h24.434l12.176-12.298.143-37.77H1.682v50.068zm24.784 1.682H.84a.84.84 0 0 1-.84-.841V1.714a.84.84 0 0 1 .84-.84H39.28a.84.84 0 0 1 .841.844l-.147 38.955a.84.84 0 0 1-.243.588L27.064 54.054a.843.843 0 0 1-.598.249z" fill="#204CC7"/>
    </g>
    <path fill-rule="evenodd" clip-rule="evenodd" d="M32.816 41.51c-4.017 0-5.51 1.515-5.51 5.588v4.32l9.81-9.907h-4.3zm-6.35 12.793a.842.842 0 0 1-.841-.84v-6.365c0-5.026 2.217-7.27 7.19-7.27h6.316a.84.84 0 0 1 .599 1.434L27.064 54.054a.844.844 0 0 1-.598.248z" fill="#204CC7"/>
    <mask id="t3dovx76rb" style="mask-type:luminance" maskUnits="userSpaceOnUse" x="0" y="0" width="41" height="55">
        <path fill-rule="evenodd" clip-rule="evenodd" d="M0 54.303h40.12V.873H0v53.43z" fill="#fff"/>
    </mask>
    <g mask="url(#t3dovx76rb)" fill-rule="evenodd" clip-rule="evenodd" fill="#204CC7">
        <path d="M.922 14.638h38.276V1.714H.922v12.924zM32.864 23.574H7.238a.84.84 0 0 1 0-1.682h25.626a.842.842 0 1 1 0 1.682M32.864 29.508H7.238a.84.84 0 0 1 0-1.682h25.626a.841.841 0 1 1 0 1.682M32.864 35.442H7.238a.839.839 0 1 1 0-1.68h25.626c.463 0 .842.377.842.84 0 .464-.379.84-.842.84M20.05 41.362H7.239a.84.84 0 0 1 0-1.682H20.05a.842.842 0 0 1 0 1.682"/>
    </g>
    <path d="M9.356 11.119c.475 0 .778-.321.778-.765s-.303-.76-.778-.76c-.47 0-.777.316-.777.76s.307.765.777.765zm1.934-6.46V11h2.496c1.898 0 2.975-1.156 2.975-3.217 0-1.986-1.09-3.124-2.975-3.124H11.29zm1.327 1.133h.958c1.151 0 1.833.73 1.833 2.013 0 1.34-.66 2.061-1.833 2.061h-.958V5.792zm7.778-1.296c-1.867 0-3.054 1.275-3.054 3.331 0 2.057 1.169 3.336 3.054 3.336 1.872 0 3.05-1.28 3.05-3.336 0-2.052-1.182-3.33-3.05-3.33zm0 1.165c1.029 0 1.692.839 1.692 2.166 0 1.323-.66 2.171-1.692 2.171-1.046 0-1.696-.848-1.696-2.17 0-1.328.663-2.167 1.696-2.167zM27 11.163c1.53 0 2.646-.945 2.756-2.316h-1.293c-.127.698-.698 1.147-1.459 1.147-1.002 0-1.621-.83-1.621-2.167 0-1.336.62-2.162 1.617-2.162.756 0 1.332.479 1.46 1.209h1.291c-.097-1.38-1.248-2.378-2.75-2.378-1.842 0-2.976 1.27-2.976 3.331 0 2.066 1.138 3.336 2.975 3.336z" fill="#fff"/>
</svg>
