<svg width="41" height="56" viewBox="0 0 41 56" fill="none" xmlns="http://www.w3.org/2000/svg">
    <mask id="1feci9903a" style="mask-type:luminance" maskUnits="userSpaceOnUse" x="0" y="0" width="41" height="55">
        <path fill-rule="evenodd" clip-rule="evenodd" d="M0 .874h40.12v53.444H0V.874z" fill="#fff"/>
    </mask>
    <g mask="url(#1feci9903a)">
        <path fill-rule="evenodd" clip-rule="evenodd" d="M1.682 52.638h24.433l12.178-12.317.142-37.768H1.682v50.085zm24.785 1.68H.84a.84.84 0 0 1-.841-.84V1.713a.84.84 0 0 1 .841-.84h38.438a.839.839 0 0 1 .841.843l-.147 38.954a.84.84 0 0 1-.243.589L27.064 54.07a.838.838 0 0 1-.597.248z" fill="#8C30C5"/>
    </g>
    <path fill-rule="evenodd" clip-rule="evenodd" d="M32.816 41.51c-4.016 0-5.509 1.515-5.509 5.588v4.334l9.811-9.922h-4.302zm-6.35 12.808a.866.866 0 0 1-.32-.06.843.843 0 0 1-.52-.78v-6.38c0-5.028 2.217-7.27 7.19-7.27h6.316c.34 0 .646.204.777.516.13.313.06.674-.18.916L27.065 54.07a.84.84 0 0 1-.598.248z" fill="#8C30C5"/>
    <mask id="ykc25ivknb" style="mask-type:luminance" maskUnits="userSpaceOnUse" x="0" y="0" width="41" height="55">
        <path fill-rule="evenodd" clip-rule="evenodd" d="M0 54.318h40.12V.873H0v53.445z" fill="#fff"/>
    </mask>
    <g mask="url(#ykc25ivknb)" fill-rule="evenodd" clip-rule="evenodd" fill="#8C30C5">
        <path d="M.923 14.653h38.275V1.714H.923v12.94zM7.631 19.617c-1.255 0-2.277 1.035-2.277 2.308 0 1.28 1.022 2.325 2.277 2.325 1.264 0 2.293-1.045 2.293-2.325a2.304 2.304 0 0 0-2.293-2.308m0 6.314c-2.183 0-3.959-1.798-3.959-4.006 0-2.2 1.776-3.99 3.959-3.99 2.192 0 3.974 1.79 3.974 3.99 0 2.208-1.782 4.006-3.974 4.006M6.409 36.005h28.24l-.014-8.154-5.78-6.904-8.674 7.611a.844.844 0 0 1-1.053.044l-4.124-3.04-8.595 10.443zm29.083 1.68H4.627a.839.839 0 0 1-.76-.483.838.838 0 0 1 .11-.892L14.214 23.88a.84.84 0 0 1 1.147-.143l4.222 3.111 8.811-7.73a.822.822 0 0 1 .618-.208.844.844 0 0 1 .581.3l6.528 7.796a.845.845 0 0 1 .197.54l.016 9.297a.841.841 0 0 1-.84.843z"/>
    </g>
    <path d="M10.821 11.119c-.47 0-.778-.321-.778-.765s.308-.76.778-.76c.475 0 .778.316.778.76s-.303.765-.778.765zM15.602 11h-2.847V4.659h2.773c1.23 0 1.964.602 1.964 1.582 0 .672-.497 1.257-1.147 1.353v.08c.84.06 1.45.694 1.45 1.511 0 1.112-.84 1.815-2.193 1.815zm-1.52-5.326v1.613h.997c.717 0 1.108-.295 1.108-.805 0-.505-.365-.808-.998-.808h-1.107zm0 4.31h1.182c.765 0 1.178-.32 1.178-.913 0-.58-.427-.888-1.209-.888h-1.151v1.802zM25.31 11h-1.23V6.76h-.071l-1.613 3.897h-.883L19.896 6.76h-.07V11h-1.231V4.659h1.564l1.754 4.28h.079l1.758-4.28h1.56V11zm1.138-6.341h2.645c1.305 0 2.198.874 2.198 2.193 0 1.305-.928 2.18-2.264 2.18h-1.252V11h-1.327V4.659zm1.327 1.09v2.206h.962c.76 0 1.205-.387 1.205-1.099 0-.72-.436-1.107-1.2-1.107h-.967z" fill="#fff"/>
</svg>
