<svg width="41" height="56" viewBox="0 0 41 56" fill="none" xmlns="http://www.w3.org/2000/svg">
    <mask id="ytegpw8zda" style="mask-type:luminance" maskUnits="userSpaceOnUse" x="0" y="0" width="41" height="55">
        <path fill-rule="evenodd" clip-rule="evenodd" d="M0 .874h40.12v53.445H0V.874z" fill="#fff"/>
    </mask>
    <g mask="url(#ytegpw8zda)">
        <path fill-rule="evenodd" clip-rule="evenodd" d="M1.682 52.637h24.435L38.293 40.34l.142-37.785H1.682v50.082zm24.785 1.682H.84A.842.842 0 0 1 0 53.48V1.713c0-.464.377-.84.841-.84h38.438a.843.843 0 0 1 .841.843l-.147 38.972a.843.843 0 0 1-.243.589L27.064 54.07a.847.847 0 0 1-.597.25z" fill="#1A3D9F"/>
    </g>
    <path fill-rule="evenodd" clip-rule="evenodd" d="M32.816 41.527c-4.016 0-5.509 1.51-5.509 5.572v4.336l9.809-9.908h-4.3zm-6.35 12.792a.84.84 0 0 1-.84-.84v-6.38c0-5.016 2.217-7.254 7.19-7.254h6.316c.34 0 .646.205.777.517.13.313.06.675-.18.916L27.065 54.07a.845.845 0 0 1-.598.249z" fill="#1A3D9F"/>
    <mask id="9uf5npoqdb" style="mask-type:luminance" maskUnits="userSpaceOnUse" x="0" y="0" width="41" height="55">
        <path fill-rule="evenodd" clip-rule="evenodd" d="M0 54.32h40.12V.872H0V54.32z" fill="#fff"/>
    </mask>
    <g mask="url(#9uf5npoqdb)" fill-rule="evenodd" clip-rule="evenodd" fill="#1A3D9F">
        <path d="M.923 14.655h38.275V1.715H.923v12.94zM32.865 23.59h-8.456a.84.84 0 0 1 0-1.681h8.456a.84.84 0 1 1 0 1.681M32.864 29.526H7.238a.841.841 0 0 1 0-1.682h25.626a.841.841 0 0 1 0 1.682M32.864 35.46H17.212a.84.84 0 1 1 0-1.682h15.652a.841.841 0 0 1 0 1.682M20.051 41.378H7.238a.841.841 0 0 1 0-1.682h12.813a.84.84 0 0 1 0 1.682M18.942 23.59H7.239a.84.84 0 1 1 0-1.681h11.703a.84.84 0 1 1 0 1.681M13.54 35.46H7.237a.84.84 0 1 1 0-1.682h6.301a.842.842 0 0 1 0 1.682"/>
    </g>
    <path d="M10.771 11.119c.475 0 .778-.321.778-.765s-.303-.76-.778-.76c-.47 0-.777.316-.777.76s.307.765.777.765zM14.78 11V5.792h1.903V4.66h-5.133v1.133h1.903V11h1.327zm2.294 0h1.433l1.38-2.149h.079L21.327 11h1.512l-2.057-3.173 2.087-3.168h-1.485l-1.336 2.219h-.08l-1.322-2.22h-1.56L19.1 7.806 17.073 11zm9.413 0V5.792h1.903V4.66h-5.133v1.133h1.903V11h1.327z" fill="#fff"/>
</svg>
