<svg width="41" height="56" viewBox="0 0 41 56" fill="none" xmlns="http://www.w3.org/2000/svg">
    <mask id="65j7k0zw9a" style="mask-type:luminance" maskUnits="userSpaceOnUse" x="0" y="0" width="41" height="55">
        <path fill-rule="evenodd" clip-rule="evenodd" d="M0 .874h40.12v53.444H0V.874z" fill="#fff"/>
    </mask>
    <g mask="url(#65j7k0zw9a)">
        <path fill-rule="evenodd" clip-rule="evenodd" d="M1.682 52.638h24.433l12.178-12.317.142-37.768H1.682v50.085zm24.785 1.68H.84a.84.84 0 0 1-.841-.84V1.713a.84.84 0 0 1 .841-.84h38.438a.839.839 0 0 1 .841.843l-.147 38.954a.84.84 0 0 1-.243.589L27.064 54.07a.838.838 0 0 1-.597.248z" fill="#8C30C5"/>
    </g>
    <path fill-rule="evenodd" clip-rule="evenodd" d="M32.816 41.51c-4.016 0-5.509 1.515-5.509 5.588v4.334l9.811-9.922h-4.302zm-6.35 12.808a.866.866 0 0 1-.32-.06.843.843 0 0 1-.52-.78v-6.38c0-5.028 2.217-7.27 7.19-7.27h6.316c.34 0 .646.204.777.516.13.313.06.674-.18.916L27.065 54.07a.84.84 0 0 1-.598.248z" fill="#8C30C5"/>
    <mask id="ow5vs5q0mb" style="mask-type:luminance" maskUnits="userSpaceOnUse" x="0" y="0" width="41" height="55">
        <path fill-rule="evenodd" clip-rule="evenodd" d="M0 54.318h40.12V.873H0v53.445z" fill="#fff"/>
    </mask>
    <g mask="url(#ow5vs5q0mb)" fill-rule="evenodd" clip-rule="evenodd" fill="#8C30C5">
        <path d="M.923 14.653h38.275V1.714H.923v12.94zM7.631 19.617c-1.255 0-2.277 1.035-2.277 2.308 0 1.28 1.022 2.325 2.277 2.325 1.264 0 2.293-1.045 2.293-2.325a2.304 2.304 0 0 0-2.293-2.308m0 6.314c-2.183 0-3.959-1.798-3.959-4.006 0-2.2 1.776-3.99 3.959-3.99 2.192 0 3.974 1.79 3.974 3.99 0 2.208-1.782 4.006-3.974 4.006M6.409 36.005h28.24l-.014-8.154-5.78-6.904-8.674 7.611a.844.844 0 0 1-1.053.044l-4.124-3.04-8.595 10.443zm29.083 1.68H4.627a.839.839 0 0 1-.76-.483.838.838 0 0 1 .11-.892L14.214 23.88a.84.84 0 0 1 1.147-.143l4.222 3.111 8.811-7.73a.822.822 0 0 1 .618-.208.844.844 0 0 1 .581.3l6.528 7.796a.845.845 0 0 1 .197.54l.016 9.297a.841.841 0 0 1-.84.843z"/>
    </g>
    <path d="M11.937 11.119c.475 0 .778-.321.778-.765s-.303-.76-.778-.76c-.47 0-.777.316-.777.76s.307.765.777.765zm1.499-1.982c0 1.243.852 2.026 2.153 2.026 1.345 0 2.153-.765 2.153-2.132V4.66h-1.327v4.363c0 .624-.299.954-.843.954-.51 0-.844-.33-.853-.84h-1.283zm5.449-4.478V11h1.327V9.031h1.253c1.335 0 2.263-.874 2.263-2.18 0-1.318-.892-2.192-2.198-2.192h-2.645zm1.327 1.09h.967c.765 0 1.2.386 1.2 1.107 0 .712-.444 1.099-1.205 1.099h-.962V5.749zm9.91 2.663v-.809h-2.663v.998h1.375l-.004.114c-.027.764-.629 1.279-1.499 1.279-1.046 0-1.705-.827-1.705-2.184 0-1.332.628-2.145 1.652-2.145.739 0 1.27.374 1.468 1.015h1.319c-.185-1.318-1.288-2.184-2.787-2.184-1.845 0-3.01 1.283-3.01 3.327 0 2.074 1.156 3.34 3.041 3.34 1.732 0 2.813-1.055 2.813-2.751z" fill="#fff"/>
</svg>
