<svg width="41" height="56" viewBox="0 0 41 56" fill="none" xmlns="http://www.w3.org/2000/svg">
    <mask id="2d38vp5ota" style="mask-type:luminance" maskUnits="userSpaceOnUse" x="0" y="0" width="41" height="55">
        <path fill-rule="evenodd" clip-rule="evenodd" d="M0 .874h40.12v53.444H0V.874z" fill="#fff"/>
    </mask>
    <g mask="url(#2d38vp5ota)">
        <path fill-rule="evenodd" clip-rule="evenodd" d="M1.682 52.638h24.433l12.178-12.317.142-37.768H1.682v50.085zm24.785 1.68H.84a.84.84 0 0 1-.841-.84V1.713a.84.84 0 0 1 .841-.84h38.438a.839.839 0 0 1 .841.843l-.147 38.954a.84.84 0 0 1-.243.589L27.064 54.07a.838.838 0 0 1-.597.248z" fill="#FF7523"/>
    </g>
    <path fill-rule="evenodd" clip-rule="evenodd" d="M32.816 41.51c-4.016 0-5.509 1.515-5.509 5.588v4.334l9.811-9.922h-4.302zm-6.35 12.808a.866.866 0 0 1-.32-.06.843.843 0 0 1-.52-.78v-6.38c0-5.028 2.217-7.27 7.19-7.27h6.316c.34 0 .646.204.777.516.13.313.06.674-.18.916L27.065 54.07a.84.84 0 0 1-.598.248z" fill="#FF7523"/>
    <mask id="x4m658uabb" style="mask-type:luminance" maskUnits="userSpaceOnUse" x="0" y="0" width="41" height="55">
        <path fill-rule="evenodd" clip-rule="evenodd" d="M0 54.318h40.12V.873H0v53.445z" fill="#fff"/>
    </mask>
    <g mask="url(#x4m658uabb)">
        <path fill-rule="evenodd" clip-rule="evenodd" d="M.923 14.653h38.275V1.714H.923v12.94z" fill="#FF7523"/>
    </g>
    <path d="M13.81 11.119c-.47 0-.778-.321-.778-.765s.307-.76.777-.76c.475 0 .778.316.778.76s-.303.765-.777.765zm6.995-2.707c0 1.696-1.08 2.75-2.812 2.75-1.885 0-3.041-1.265-3.041-3.34 0-2.043 1.164-3.326 3.01-3.326 1.499 0 2.602.866 2.786 2.184H19.43c-.198-.641-.73-1.015-1.468-1.015-1.024 0-1.652.813-1.652 2.145 0 1.357.659 2.184 1.705 2.184.87 0 1.472-.515 1.498-1.28l.005-.113h-1.376v-.998h2.663v.809zM23.008 11H21.68V4.659h1.327V11zm2.465 0h-1.327V4.659h4.153v1.133h-2.826v1.653h2.58V8.53h-2.58V11z" fill="#fff"/>
    <path fill-rule="evenodd" clip-rule="evenodd" d="M15.223 22.767a1.058 1.058 0 0 0-1.628.89v14.985a1.058 1.058 0 0 0 1.628.89l11.695-7.491a1.058 1.058 0 0 0 0-1.782l-11.695-7.492zm.487 13.941V25.592l8.677 5.558-8.677 5.558z" fill="#FF7523"/>
</svg>
