<svg width="41" height="56" viewBox="0 0 41 56" fill="none" xmlns="http://www.w3.org/2000/svg">
    <mask id="a77jhtnlra" style="mask-type:luminance" maskUnits="userSpaceOnUse" x="0" y="0" width="41" height="55">
        <path fill-rule="evenodd" clip-rule="evenodd" d="M0 .874h40.12v53.444H0V.874z" fill="#fff"/>
    </mask>
    <g mask="url(#a77jhtnlra)">
        <path fill-rule="evenodd" clip-rule="evenodd" d="M1.682 52.638h24.433l12.178-12.317.142-37.768H1.682v50.085zm24.785 1.68H.84a.84.84 0 0 1-.841-.84V1.713a.84.84 0 0 1 .841-.84h38.438a.839.839 0 0 1 .841.843l-.147 38.954a.84.84 0 0 1-.243.589L27.064 54.07a.838.838 0 0 1-.597.248z" fill="#B7372F"/>
    </g>
    <path fill-rule="evenodd" clip-rule="evenodd" d="M32.816 41.51c-4.016 0-5.509 1.515-5.509 5.588v4.334l9.811-9.922h-4.302zm-6.35 12.808a.866.866 0 0 1-.32-.06.843.843 0 0 1-.52-.78v-6.38c0-5.028 2.217-7.27 7.19-7.27h6.316c.34 0 .646.204.777.516.13.313.06.674-.18.916L27.065 54.07a.84.84 0 0 1-.598.248z" fill="#B7372F"/>
    <mask id="lpr7kx55wb" style="mask-type:luminance" maskUnits="userSpaceOnUse" x="0" y="0" width="41" height="55">
        <path fill-rule="evenodd" clip-rule="evenodd" d="M0 54.318h40.12V.873H0v53.445z" fill="#fff"/>
    </mask>
    <g mask="url(#lpr7kx55wb)" fill-rule="evenodd" clip-rule="evenodd" fill="#B7372F">
        <path d="M.923 14.653h38.275V1.714H.923v12.94zM7.631 19.617c-1.255 0-2.277 1.035-2.277 2.308 0 1.28 1.022 2.325 2.277 2.325 1.264 0 2.293-1.045 2.293-2.325a2.304 2.304 0 0 0-2.293-2.308m0 6.314c-2.183 0-3.959-1.798-3.959-4.006 0-2.2 1.776-3.99 3.959-3.99 2.192 0 3.974 1.79 3.974 3.99 0 2.208-1.782 4.006-3.974 4.006M6.409 36.005h28.24l-.014-8.154-5.78-6.904-8.674 7.611a.844.844 0 0 1-1.053.044l-4.124-3.04-8.595 10.443zm29.083 1.68H4.627a.839.839 0 0 1-.76-.483.838.838 0 0 1 .11-.892L14.214 23.88a.84.84 0 0 1 1.147-.143l4.222 3.111 8.811-7.73a.822.822 0 0 1 .618-.208.844.844 0 0 1 .581.3l6.528 7.796a.845.845 0 0 1 .197.54l.016 9.297a.841.841 0 0 1-.84.843z"/>
    </g>
    <path d="M11.913 11.119c-.47 0-.778-.321-.778-.765s.308-.76.778-.76c.475 0 .778.316.778.76s-.303.765-.778.765zM15.921 11h-1.327V5.792H12.69V4.66h5.133v1.133H15.92V11zm4.003 0h-1.327V4.659h1.327V11zm2.466 0h-1.328V4.659h4.153v1.133H22.39v1.653h2.58V8.53h-2.58V11zm4.979 0H26.04V4.659h4.153v1.133H27.37v1.653h2.579V8.53h-2.58V11z" fill="#fff"/>
</svg>
