<svg width="41" height="56" viewBox="0 0 41 56" fill="none" xmlns="http://www.w3.org/2000/svg">
    <mask id="ersfm2uf9a" style="mask-type:luminance" maskUnits="userSpaceOnUse" x="0" y="0" width="41" height="55">
        <path fill-rule="evenodd" clip-rule="evenodd" d="M0 .873h40.12V54.32H0V.873z" fill="#fff"/>
    </mask>
    <g mask="url(#ersfm2uf9a)">
        <path fill-rule="evenodd" clip-rule="evenodd" d="M1.682 52.638h24.434l12.176-12.299.143-37.784H1.682v50.083zm24.784 1.68H.84a.84.84 0 0 1-.84-.84V1.715a.84.84 0 0 1 .84-.84H39.28a.839.839 0 0 1 .841.844l-.147 38.971c0 .22-.088.432-.243.588L27.064 54.07a.843.843 0 0 1-.598.249z" fill="#8C30C5"/>
    </g>
    <mask id="c692a97mrb" style="mask-type:luminance" maskUnits="userSpaceOnUse" x="25" y="39" width="15" height="16">
        <path fill-rule="evenodd" clip-rule="evenodd" d="M25.625 39.845h14.347V54.32H25.625V39.845z" fill="#fff"/>
    </mask>
    <g mask="url(#c692a97mrb)">
        <path fill-rule="evenodd" clip-rule="evenodd" d="M32.816 41.526c-4.017 0-5.51 1.51-5.51 5.573v4.336l9.81-9.909h-4.3zm-6.35 12.793a.844.844 0 0 1-.841-.84V47.1c0-5.017 2.217-7.254 7.19-7.254h6.316a.84.84 0 0 1 .599 1.432L27.064 54.07a.844.844 0 0 1-.598.25z" fill="#8C30C5"/>
    </g>
    <mask id="7lby5839rc" style="mask-type:luminance" maskUnits="userSpaceOnUse" x="0" y="0" width="41" height="55">
        <path fill-rule="evenodd" clip-rule="evenodd" d="M0 54.32h40.12V.872H0V54.32z" fill="#fff"/>
    </mask>
    <g mask="url(#7lby5839rc)" fill-rule="evenodd" clip-rule="evenodd" fill="#8C30C5">
        <path d="M.922 14.656h38.276V1.714H.922v12.942zM12.902 26.492h2.857V23.59h-2.857v2.902zm2.857 2.884h2.873v-2.884h-2.873v2.884zm2.872 2.885h2.855v-2.885h-2.855v2.885zm2.855 2.902h2.857v-2.9h-2.857v2.9zm-8.584-2.902h2.857v-2.885h-2.857v2.885zm2.857 2.902h2.873v-2.9h-2.873v2.9zm8.584-2.9h2.874v-2.886h-2.874v2.885zm-2.857-2.887h2.857v-2.884h-2.857v2.884zm-2.854-2.884h2.855V23.59h-2.855v2.902zm-2.873-2.902h2.873v-2.885h-2.873v2.886zm8.584 2.902h2.874V23.59h-2.874v2.902zm-2.857-2.902h2.857v-2.885h-2.857v2.886zm-11.44-5.77h2.856v2.885h2.857v-2.884h2.873v2.884h2.854v-2.884h2.857v2.884h2.874v-2.884h2.857v2.884h-2.857v2.886h2.857v2.9h-2.857v2.885h2.857v2.886h-2.857v2.901h2.857v2.885h-2.857v-2.885h-2.874v2.885h-2.857v-2.885h-2.854v2.885h-2.873v-2.885h-2.857v2.885h-2.856v-2.885h2.856v-2.9h-2.856v-2.887h2.856v-2.884h-2.856V23.59h2.856v-2.885h-2.856v-2.884z"/>
    </g>
    <path d="M9.686 11.119c.475 0 .778-.321.778-.765s-.303-.76-.778-.76c-.47 0-.778.316-.778.76s.308.765.778.765zm1.933-6.46V11h1.328V9.031h1.252c1.336 0 2.263-.874 2.263-2.18 0-1.318-.892-2.192-2.197-2.192h-2.646zm1.328 1.09h.966c.765 0 1.2.386 1.2 1.107 0 .712-.444 1.099-1.204 1.099h-.962V5.749zM18.554 11V7.032h.079L21.56 11h1.098V4.659h-1.27v3.95h-.079l-2.918-3.95h-1.107V11h1.27zm10.82-2.588v-.809H26.71v.998h1.375l-.004.114c-.026.764-.628 1.279-1.498 1.279-1.046 0-1.705-.827-1.705-2.184 0-1.332.628-2.145 1.652-2.145.738 0 1.27.374 1.468 1.015h1.318c-.185-1.318-1.288-2.184-2.786-2.184-1.846 0-3.01 1.283-3.01 3.327 0 2.074 1.155 3.34 3.04 3.34 1.732 0 2.813-1.055 2.813-2.751z" fill="#fff"/>
</svg>
