<svg width="41" height="56" viewBox="0 0 41 56" fill="none" xmlns="http://www.w3.org/2000/svg">
    <mask id="pbya60px1a" style="mask-type:luminance" maskUnits="userSpaceOnUse" x="0" y="0" width="41" height="55">
        <path fill-rule="evenodd" clip-rule="evenodd" d="M0 .873h40.12v53.43H0V.873z" fill="#fff"/>
    </mask>
    <g mask="url(#pbya60px1a)">
        <path fill-rule="evenodd" clip-rule="evenodd" d="M1.681 52.621h24.434l12.177-12.3.143-37.767H1.68v50.067zm24.785 1.682H.841A.842.842 0 0 1 0 53.461V1.713a.84.84 0 0 1 .841-.84h38.438a.841.841 0 0 1 .841.843l-.148 38.956c0 .22-.088.432-.242.588L27.063 54.053a.838.838 0 0 1-.597.25z" fill="#006C8A"/>
    </g>
    <path fill-rule="evenodd" clip-rule="evenodd" d="M32.815 41.51c-4.015 0-5.507 1.515-5.507 5.588v4.32l9.808-9.908h-4.3zm-6.348 12.793a.843.843 0 0 1-.841-.841v-6.364c0-5.028 2.217-7.27 7.19-7.27h6.316a.842.842 0 0 1 .597 1.432L27.064 54.053a.838.838 0 0 1-.598.25z" fill="#006C8A"/>
    <mask id="s5bqt2fjvb" style="mask-type:luminance" maskUnits="userSpaceOnUse" x="0" y="0" width="41" height="55">
        <path fill-rule="evenodd" clip-rule="evenodd" d="M0 54.303h40.12V.873H0v53.43z" fill="#fff"/>
    </mask>
    <g mask="url(#s5bqt2fjvb)" fill-rule="evenodd" clip-rule="evenodd" fill="#006C8A">
        <path d="M.922 14.654h38.276V1.713H.922v12.941zM15.677 18.776H9.345a.84.84 0 1 1 0-1.681h6.332a.84.84 0 1 1 0 1.68M15.677 22.337H9.345a.84.84 0 1 1 0-1.682h6.332a.84.84 0 1 1 0 1.682"/>
        <path d="M12.51 37.29a.841.841 0 0 1-.84-.842v-22.98a.84.84 0 1 1 1.681 0v22.98a.84.84 0 0 1-.84.841"/>
        <path d="M15.677 25.898H9.345a.84.84 0 1 1 0-1.682h6.332a.84.84 0 0 1 0 1.682M15.677 29.459H9.345a.84.84 0 1 1 0-1.681h6.332a.84.84 0 1 1 0 1.68M15.677 33.02H9.345a.84.84 0 1 1 0-1.682h6.332a.84.84 0 1 1 0 1.681M9.848 37.29l-.894 7.696c-.09.794.18 1.59.76 2.242a3.804 3.804 0 0 0 2.796 1.254c1.042 0 2.08-.467 2.779-1.251.581-.651.852-1.45.761-2.245l-.893-7.697h-5.31zm2.662 12.874a5.51 5.51 0 0 1-4.05-1.817c-.905-1.013-1.322-2.276-1.176-3.553l.98-8.443a.84.84 0 0 1 .835-.743h6.806a.84.84 0 0 1 .836.743l.98 8.44c.146 1.282-.272 2.545-1.178 3.56a5.488 5.488 0 0 1-4.032 1.813z"/>
        <path d="m11.462 43.95-.13.795c-.04.249.08.454.188.58.233.276.623.455.991.455.358 0 .74-.177.972-.45.108-.129.23-.335.19-.584l-.13-.797h-2.08zm1.05 3.51a3.015 3.015 0 0 1-2.274-1.046c-.478-.563-.678-1.252-.565-1.942l.245-1.5a.842.842 0 0 1 .83-.704h3.51c.411 0 .763.299.83.705l.244 1.501c.113.688-.087 1.379-.567 1.944a2.99 2.99 0 0 1-2.254 1.043z"/>
    </g>
    <path d="M9.555 11.119c.475 0 .778-.321.778-.765s-.303-.76-.778-.76c-.47 0-.778.316-.778.76s.308.765.778.765zm3.26-5.388h1.152c.66 0 1.072.378 1.072.98 0 .61-.39.971-1.059.971h-1.164V5.731zm0 2.97h1.086L15.083 11h1.503L15.25 8.495c.73-.29 1.152-.993 1.152-1.802 0-1.26-.857-2.034-2.25-2.034h-2.663V11h1.327V8.702zM21.412 11h1.437l-2.201-6.341h-1.56L16.885 11h1.331l.488-1.512h2.228l.48 1.512zm-1.626-5.023h.08l.786 2.487H18.99l.795-2.487zm5.072-.246h1.15c.66 0 1.073.378 1.073.98 0 .61-.39.971-1.059.971h-1.165V5.731zm0 2.97h1.085L27.124 11h1.503l-1.336-2.505c.73-.29 1.151-.993 1.151-1.802 0-1.26-.857-2.034-2.25-2.034H23.53V11h1.328V8.702z" fill="#fff"/>
</svg>
