<svg width="40" height="55" viewBox="0 0 40 55" fill="none" xmlns="http://www.w3.org/2000/svg">
    <g clip-path="url(#awg0e3xpea)">
        <mask id="3lx62x59zb" style="mask-type:luminance" maskUnits="userSpaceOnUse" x="0" y="0" width="40" height="55">
            <path fill-rule="evenodd" clip-rule="evenodd" d="M0 .87h39.914v53.173H0V.869z" fill="#fff"/>
        </mask>
        <g mask="url(#3lx62x59zb)">
            <path fill-rule="evenodd" clip-rule="evenodd" d="M1.672 52.37H25.98l12.116-12.253.142-37.577H1.672v49.83zm24.659 1.673H.835A.836.836 0 0 1 0 53.206V1.705C0 1.244.374.869.835.869h38.244a.837.837 0 0 1 .837.84l-.148 38.757a.83.83 0 0 1-.242.584L26.924 53.794a.831.831 0 0 1-.593.249z" fill="#E5453B"/>
        </g>
        <path fill-rule="evenodd" clip-rule="evenodd" d="M32.647 41.299c-3.995 0-5.48 1.506-5.48 5.56v4.31l9.76-9.87h-4.28zM26.33 54.043a.838.838 0 0 1-.835-.837V46.86c0-5.002 2.206-7.234 7.152-7.234h6.284a.836.836 0 0 1 .595 1.424L26.925 53.794a.835.835 0 0 1-.595.249z" fill="#E5453B"/>
        <mask id="xcn8d12nxc" style="mask-type:luminance" maskUnits="userSpaceOnUse" x="0" y="0" width="40" height="55">
            <path fill-rule="evenodd" clip-rule="evenodd" d="M0 54.043h39.914V.869H0v53.174z" fill="#fff"/>
        </mask>
        <g mask="url(#xcn8d12nxc)" fill-rule="evenodd" clip-rule="evenodd" fill="#E5453B">
            <path d="M.917 14.58h38.08V1.706H.918V14.58zM27.857 35.312c-.276.379-.86.379-1.071.379-.471 0-.635-.28-1.349-.839a14.418 14.418 0 0 1 1.591-.081c.78 0 .91.115 1.024.164-.017.065-.066.18-.195.377m-11.336.41c.879-2.13 1.722-4.51 2.34-6.707.99 1.787 2.175 3.524 3.36 4.919-1.867.443-3.865 1.083-5.7 1.789m1.803-14.221c.049-.017.926.984.098 2.855-1.267-1.296-.179-2.822-.098-2.855m-7.21 20.355c-.405-.33-.389-.541-.373-.623.048-.492.812-1.363 2.695-2.428-1.428 2.657-2.191 3.002-2.322 3.05M26.85 33.26c-.812 0-1.802.117-2.956.332-1.607-1.74-3.28-4.25-4.466-6.726 1.17-5.003.586-5.708.325-6.036-.276-.36-.665-.935-1.104-.935-.195 0-.698.082-.893.146-.52.182-.779.575-1.006 1.084-.618 1.475.242 3.968 1.103 5.904-.746 3.019-1.997 6.61-3.328 9.547-3.329 1.541-5.1 3.05-5.246 4.494-.065.524.066 1.294.975 1.983.244.198.535.296.845.296.78 0 1.542-.591 2.45-1.87.652-.936 1.366-2.198 2.096-3.773 2.355-1.034 5.262-1.983 7.762-2.508 1.38 1.344 2.63 2.033 3.704 2.033.777 0 1.46-.361 1.948-1.066.503-.705.616-1.362.34-1.902-.34-.671-1.168-1.002-2.549-1.002"/>
        </g>
        <path d="M12.012 11.119c.475 0 .778-.321.778-.765s-.303-.76-.778-.76c-.47 0-.778.316-.778.76s.308.765.778.765zm1.934-6.46V11h1.327V9.031h1.252c1.336 0 2.263-.874 2.263-2.18 0-1.318-.892-2.192-2.197-2.192h-2.645zm1.327 1.09h.967c.764 0 1.2.386 1.2 1.107 0 .712-.445 1.099-1.205 1.099h-.962V5.749zm4.337-1.09V11h2.496c1.899 0 2.975-1.156 2.975-3.217 0-1.986-1.09-3.124-2.975-3.124H19.61zm1.327 1.133h.958c1.152 0 1.833.73 1.833 2.013 0 1.34-.66 2.061-1.833 2.061h-.958V5.792zM27.27 11V8.53h2.58V7.445h-2.58V5.792h2.825V4.66h-4.152V11h1.327z" fill="#fff"/>
    </g>
    <defs>
        <clipPath id="awg0e3xpea">
            <path fill="#fff" d="M0 0h40v55H0z"/>
        </clipPath>
    </defs>
</svg>
