<svg width="40" height="55" viewBox="0 0 40 55" fill="none" xmlns="http://www.w3.org/2000/svg">
    <mask id="fyzyhb85da" style="mask-type:luminance" maskUnits="userSpaceOnUse" x="0" y="1" width="40" height="54">
        <path fill-rule="evenodd" clip-rule="evenodd" d="M0 1h39.914v53.174H0V1z" fill="#fff"/>
    </mask>
    <g mask="url(#fyzyhb85da)">
        <path fill-rule="evenodd" clip-rule="evenodd" d="M1.672 52.5H25.98l12.116-12.252.142-37.577H1.672v49.83zm24.659 1.674H.835A.836.836 0 0 1 0 53.337V1.836C0 1.375.374 1 .835 1h38.244a.837.837 0 0 1 .837.84l-.148 38.757a.83.83 0 0 1-.242.584L26.924 53.925a.831.831 0 0 1-.593.249z" fill="#E5453B"/>
    </g>
    <path fill-rule="evenodd" clip-rule="evenodd" d="M32.647 41.43c-3.995 0-5.48 1.506-5.48 5.56v4.31l9.76-9.87h-4.28zM26.33 54.174a.838.838 0 0 1-.835-.837V46.99c0-5.002 2.206-7.234 7.152-7.234h6.284a.836.836 0 0 1 .595 1.424L26.925 53.924a.834.834 0 0 1-.595.25z" fill="#E5453B"/>
    <mask id="y8aan9zrfb" style="mask-type:luminance" maskUnits="userSpaceOnUse" x="0" y="1" width="40" height="54">
        <path fill-rule="evenodd" clip-rule="evenodd" d="M0 54.174h39.914V1H0v53.174z" fill="#fff"/>
    </mask>
    <g mask="url(#y8aan9zrfb)">
        <path fill-rule="evenodd" clip-rule="evenodd" d="M.917 14.711h38.08V1.837H.918V14.71z" fill="#E5453B"/>
    </g>
    <path d="M11.565 11.119c-.47 0-.778-.321-.778-.765s.308-.76.778-.76c.475 0 .778.316.778.76s-.303.765-.778.765zm1.933-6.46h2.646c1.305 0 2.197.874 2.197 2.193 0 1.305-.927 2.18-2.263 2.18h-1.252V11h-1.328V4.659zm1.328 1.09v2.206h.962c.76 0 1.204-.387 1.204-1.099 0-.72-.435-1.107-1.2-1.107h-.966zm4.337-1.09h2.645c1.305 0 2.198.874 2.198 2.193 0 1.305-.928 2.18-2.264 2.18H20.49V11h-1.327V4.659zm1.327 1.09v2.206h.962c.76 0 1.204-.387 1.204-1.099 0-.72-.435-1.107-1.2-1.107h-.966zM27.693 11h-1.328V5.792h-1.902V4.66h5.132v1.133h-1.902V11z" fill="#fff"/>
    <path d="M29.93 29.7h-6.14v-6.14a.88.88 0 0 0-.877-.876 7.831 7.831 0 0 0-5.57 2.324 7.831 7.831 0 0 0-2.324 5.57c0 4.341 3.552 7.894 7.894 7.894a7.832 7.832 0 0 0 5.57-2.325 7.832 7.832 0 0 0 2.324-5.57.88.88 0 0 0-.877-.876zm-2.675 5.22a6.1 6.1 0 0 1-4.342 1.797c-3.377 0-6.14-2.762-6.14-6.14 0-1.622.658-3.157 1.798-4.34a5.927 5.927 0 0 1 3.465-1.711v6.052a.88.88 0 0 0 .877.877h6.052c-.175 1.316-.79 2.5-1.71 3.464z" fill="#E5453B"/>
    <path d="M26.684 19a.88.88 0 0 0-.877.877v7.017a.88.88 0 0 0 .877.877H33.7a.88.88 0 0 0 .877-.877 7.832 7.832 0 0 0-2.325-5.57C30.763 19.79 28.79 19 26.683 19zm.877 6.973v-5.175c1.316.176 2.5.79 3.464 1.71a5.927 5.927 0 0 1 1.71 3.465h-5.174zM13.308 30.71H6.95a.88.88 0 0 0-.877.877.88.88 0 0 0 .877.877h6.36a.88.88 0 0 0 .877-.877.88.88 0 0 0-.878-.878zM13.308 27.289H6.95a.88.88 0 0 0-.877.877.88.88 0 0 0 .877.877h6.36a.88.88 0 0 0 .877-.877.88.88 0 0 0-.878-.877zM10.984 34.086H6.949a.88.88 0 0 0-.877.877.88.88 0 0 0 .877.877h4.035a.88.88 0 0 0 .877-.877.88.88 0 0 0-.877-.877z" fill="#E5453B"/>
</svg>
