<svg width="41" height="56" viewBox="0 0 41 56" fill="none" xmlns="http://www.w3.org/2000/svg">
    <mask id="hh1uc1mpba" style="mask-type:luminance" maskUnits="userSpaceOnUse" x="0" y="0" width="41" height="55">
        <path fill-rule="evenodd" clip-rule="evenodd" d="M0 .872h40.038v53.337H0V.871z" fill="#fff"/>
    </mask>
    <g mask="url(#hh1uc1mpba)">
        <path fill-rule="evenodd" clip-rule="evenodd" d="M1.677 52.532h24.385l12.153-12.275.142-37.71H1.677v49.985zm24.736 1.677H.838a.838.838 0 0 1-.838-.84V1.71C0 1.246.375.872.838.872H39.2c.223 0 .437.088.593.247a.834.834 0 0 1 .246.595l-.148 38.892c-.001.22-.087.431-.242.587L27.008 53.96a.834.834 0 0 1-.595.249z" fill="#03923F"/>
    </g>
    <path fill-rule="evenodd" clip-rule="evenodd" d="M32.748 41.442c-4.007 0-5.497 1.508-5.497 5.561v4.327l9.79-9.888h-4.293zm-6.337 12.766a.859.859 0 0 1-.318-.06.843.843 0 0 1-.52-.778v-6.367c0-5.006 2.213-7.238 7.175-7.238h6.304a.839.839 0 0 1 .597 1.429L27.009 53.96a.832.832 0 0 1-.598.248z" fill="#03923F"/>
    <mask id="1e6ihplqib" style="mask-type:luminance" maskUnits="userSpaceOnUse" x="0" y="0" width="41" height="55">
        <path fill-rule="evenodd" clip-rule="evenodd" d="M0 54.209h40.038V.871H0v53.337z" fill="#fff"/>
    </mask>
    <g mask="url(#1e6ihplqib)" fill-rule="evenodd" clip-rule="evenodd" fill="#03923F">
        <path d="M.92 14.625H39.12V1.711H.92v12.914zM5.203 24.389h29.616v-3.488H5.203v3.488zm30.314 1.398H4.503a.7.7 0 0 1-.699-.7v-4.885a.7.7 0 0 1 .7-.7h31.013a.7.7 0 0 1 .7.7v4.885a.7.7 0 0 1-.7.7z"/>
        <path d="M5.203 29.291h29.616v-3.504H5.203v3.505zm30.314 1.4H4.503a.7.7 0 0 1-.699-.7v-4.904a.7.7 0 0 1 .7-.698h31.013a.7.7 0 0 1 .7.698v4.904a.7.7 0 0 1-.7.7z"/>
        <path d="M5.203 34.196h29.616V30.69H5.203v3.505zm30.314 1.398H4.503a.7.7 0 0 1-.699-.7V29.99a.7.7 0 0 1 .7-.7h31.013a.7.7 0 0 1 .7.7v4.903a.7.7 0 0 1-.7.7z"/>
        <path d="M14.747 34.196h10.526V20.9H14.747v13.295zm11.225 1.397H14.048a.7.7 0 0 1-.699-.7v-14.69a.7.7 0 0 1 .7-.7h11.923a.7.7 0 0 1 .7.7v14.69a.7.7 0 0 1-.7.7z"/>
    </g>
    <path d="M11.6 11.119c.475 0 .778-.321.778-.765s-.303-.76-.778-.76c-.47 0-.778.316-.778.76s.308.765.778.765zM13.151 11h1.433l1.38-2.149h.079L17.405 11h1.512L16.86 7.827l2.088-3.168h-1.486l-1.336 2.219h-.079l-1.323-2.22h-1.56l2.013 3.147L13.151 11zm10.696-1.156h-2.82V4.66h-1.328V11h4.148V9.844zm.519-.606c.048 1.182 1.028 1.925 2.54 1.925 1.59 0 2.57-.783 2.57-2.061 0-.985-.549-1.534-1.823-1.802l-.765-.163c-.742-.158-1.046-.382-1.046-.773 0-.484.44-.791 1.103-.791.642 0 1.108.334 1.17.835h1.247c-.04-1.13-1.028-1.912-2.425-1.912-1.464 0-2.426.787-2.426 1.982 0 .967.567 1.569 1.723 1.81l.826.176c.777.167 1.094.4 1.094.805 0 .479-.488.813-1.178.813-.747 0-1.265-.33-1.327-.844h-1.283z" fill="#fff"/>
</svg>
