<svg width="219" height="92" viewBox="0 0 219 92" fill="none" xmlns="http://www.w3.org/2000/svg">
    <path d="M10.07 87.68v-8.258h3.012v-1.51H5.318v1.51h3.005v8.258h1.747zm4.27 0h1.679v-4.298c0-1.063.616-1.78 1.72-1.78.974 0 1.489.575 1.489 1.699v4.38h1.679V82.9c0-1.76-.962-2.762-2.546-2.762-1.103 0-1.895.501-2.247 1.334h-.122V77.41H14.34v10.27zm11.202-6.22c1.009 0 1.672.703 1.706 1.8h-3.486c.074-1.083.778-1.8 1.78-1.8zm1.72 4.183c-.244.548-.82.853-1.652.853-1.103 0-1.814-.772-1.855-2.004v-.088h5.172v-.541c0-2.336-1.266-3.737-3.378-3.737-2.146 0-3.48 1.496-3.48 3.879s1.314 3.825 3.494 3.825c1.746 0 2.985-.84 3.29-2.187h-1.591zm5.852-.616c.089 1.773 1.571 2.897 3.812 2.897 2.37 0 3.838-1.184 3.838-3.087 0-1.489-.832-2.315-2.816-2.762l-1.124-.257c-1.212-.278-1.706-.663-1.706-1.32 0-.833.745-1.374 1.869-1.374 1.07 0 1.828.541 1.95 1.401h1.672c-.082-1.679-1.564-2.857-3.616-2.857-2.186 0-3.635 1.178-3.635 2.952 0 1.455.833 2.335 2.607 2.735l1.265.29c1.253.292 1.788.705 1.788 1.409 0 .819-.833 1.408-1.984 1.408-1.239 0-2.105-.562-2.213-1.435h-1.706zm12.083-3.568c1.008 0 1.672.704 1.706 1.801h-3.487c.075-1.083.779-1.8 1.78-1.8zm1.72 4.184c-.244.548-.82.853-1.653.853-1.103 0-1.814-.772-1.854-2.004v-.088h5.172v-.541c0-2.336-1.266-3.737-3.378-3.737-2.146 0-3.48 1.496-3.48 3.879s1.313 3.825 3.493 3.825c1.747 0 2.986-.84 3.29-2.187h-1.59zm5.42.84c-.744 0-1.28-.373-1.28-.996 0-.602.44-.94 1.382-1.002l1.672-.108v.589c0 .86-.758 1.516-1.774 1.516zm-.494 1.32c.968 0 1.78-.42 2.193-1.138h.115v1.015h1.618v-5.056c0-1.57-1.07-2.498-2.971-2.498-1.76 0-2.986.832-3.121 2.139h1.584c.156-.501.684-.772 1.455-.772.907 0 1.395.406 1.395 1.13v.623l-1.91.116c-1.8.108-2.809.88-2.809 2.22 0 1.354 1.023 2.22 2.451 2.22zm6.03-.123h1.672v-6.018h1.591v-1.34h-1.61v-.67c0-.698.31-1.043 1.103-1.043.236 0 .44.014.575.034v-1.232a5.383 5.383 0 0 0-.934-.075c-1.645 0-2.397.732-2.397 2.207v.779h-1.212v1.34h1.212v6.018zm6.728-1.198c-.745 0-1.28-.372-1.28-.995 0-.602.44-.94 1.381-1.002l1.672-.108v.589c0 .86-.758 1.516-1.773 1.516zm-.494 1.32c.968 0 1.78-.42 2.193-1.137h.115v1.015h1.618v-5.056c0-1.57-1.07-2.498-2.972-2.498-1.76 0-2.985.832-3.12 2.139h1.583c.156-.501.684-.772 1.456-.772.907 0 1.394.406 1.394 1.13v.623l-1.909.116c-1.8.108-2.809.88-2.809 2.22 0 1.354 1.022 2.22 2.45 2.22zm5.488-.122h1.68v-4.278c0-1.036.757-1.713 1.847-1.713.285 0 .731.048.86.095v-1.557c-.156-.047-.454-.074-.697-.074-.955 0-1.754.541-1.957 1.272h-.115v-1.15h-1.618v7.405zm8.224-6.22c1.009 0 1.672.703 1.706 1.8h-3.487c.075-1.083.779-1.8 1.78-1.8zm1.72 4.183c-.244.548-.82.853-1.652.853-1.104 0-1.815-.772-1.855-2.004v-.088h5.172v-.541c0-2.336-1.266-3.737-3.378-3.737-2.146 0-3.48 1.496-3.48 3.879s1.313 3.825 3.493 3.825c1.747 0 2.986-.84 3.29-2.187h-1.59zm2.888 2.037h1.68v-4.278c0-1.036.758-1.713 1.847-1.713.285 0 .732.048.86.095v-1.557c-.155-.047-.453-.074-.697-.074-.955 0-1.753.541-1.957 1.272h-.115v-1.15h-1.618v7.405zm4.975-5.287c0 1.117.67 1.774 2.091 2.099l1.314.305c.704.155 1.022.42 1.022.84 0 .547-.589.92-1.435.92-.84 0-1.36-.325-1.523-.874h-1.659c.129 1.348 1.293 2.146 3.141 2.146s3.155-.947 3.155-2.369c0-1.09-.657-1.7-2.072-2.017l-1.306-.298c-.745-.17-1.097-.427-1.097-.846 0-.535.576-.9 1.34-.9.786 0 1.28.331 1.402.852h1.577c-.122-1.347-1.225-2.125-2.985-2.125-1.747 0-2.965.927-2.965 2.267zm14.93 5.287v-8.258h3.013v-1.51H97.58v1.51h3.006v8.258h1.746zm3.336 0h1.679v-4.278c0-1.036.758-1.713 1.848-1.713.285 0 .731.048.86.095v-1.557c-.156-.047-.453-.074-.697-.074-.955 0-1.754.541-1.957 1.272h-.115v-1.15h-1.618v7.405zm11.751-7.405h-1.679v4.312c0 1.096-.596 1.767-1.686 1.767-1.001 0-1.469-.555-1.469-1.686v-4.393h-1.678v4.813c0 1.733.947 2.742 2.565 2.742 1.131 0 1.855-.481 2.214-1.327h.115v1.177h1.618v-7.405zm1.427 2.118c0 1.117.67 1.774 2.092 2.099l1.313.305c.704.155 1.022.42 1.022.84 0 .547-.589.92-1.435.92-.839 0-1.361-.325-1.523-.874h-1.659c.129 1.348 1.293 2.146 3.141 2.146s3.155-.947 3.155-2.369c0-1.09-.657-1.7-2.071-2.017l-1.307-.298c-.745-.17-1.097-.427-1.097-.846 0-.535.576-.9 1.341-.9.785 0 1.279.331 1.401.852h1.577c-.122-1.347-1.225-2.125-2.985-2.125-1.747 0-2.965.927-2.965 2.267zm7.824-3.933v1.862h-1.171v1.34h1.171v4.042c0 1.435.677 2.01 2.376 2.01.325 0 .636-.034.88-.08V86.32c-.203.02-.332.034-.568.034-.705 0-1.016-.325-1.016-1.056v-3.636h1.584v-1.34h-1.584V78.46h-1.672zm5.286 11.908c1.658 0 2.45-.61 3.08-2.45l2.674-7.643h-1.774l-1.726 5.78h-.115l-1.733-5.78h-1.842l2.647 7.44-.088.324c-.216.684-.616.955-1.327.955-.115 0-.365-.007-.46-.027v1.374c.108.02.562.027.664.027zm14.226-2.444c2.255 0 3.906-1.347 4.137-3.344h-1.72c-.237 1.097-1.178 1.787-2.417 1.787-1.665 0-2.701-1.367-2.701-3.574 0-2.2 1.036-3.568 2.695-3.568 1.232 0 2.173.759 2.416 1.93h1.72c-.203-2.038-1.916-3.487-4.136-3.487-2.769 0-4.482 1.957-4.482 5.132 0 3.161 1.72 5.124 4.488 5.124zm8.637-.095c2.214 0 3.561-1.448 3.561-3.851 0-2.397-1.354-3.852-3.561-3.852-2.2 0-3.561 1.462-3.561 3.852 0 2.403 1.34 3.852 3.561 3.852zm0-1.408c-1.171 0-1.841-.893-1.841-2.443 0-1.544.67-2.444 1.841-2.444 1.164 0 1.834.9 1.834 2.444 0 1.55-.663 2.443-1.834 2.443zm4.791 1.26h1.679v-4.502c0-.907.616-1.591 1.449-1.591.826 0 1.34.494 1.34 1.306v4.786h1.632v-4.61c0-.846.575-1.482 1.448-1.482.901 0 1.354.474 1.354 1.428v4.664h1.672v-5.09c0-1.537-.893-2.464-2.376-2.464-1.029 0-1.882.534-2.247 1.347h-.115c-.312-.833-1.023-1.347-2.045-1.347-.981 0-1.74.5-2.058 1.347h-.115v-1.198h-1.618v7.405zm16.138-7.528c-1.016 0-1.876.507-2.302 1.347h-.115v-1.225h-1.618v9.87h1.679v-3.588h.115c.379.785 1.198 1.245 2.261 1.245 1.868 0 3.033-1.462 3.033-3.824 0-2.377-1.178-3.825-3.053-3.825zm-.529 6.221c-1.144 0-1.854-.914-1.861-2.396.007-1.476.724-2.397 1.868-2.397 1.151 0 1.848.9 1.848 2.397 0 1.496-.69 2.396-1.855 2.396zm7.337.108c-.744 0-1.279-.372-1.279-.995 0-.602.44-.94 1.381-1.002l1.672-.108v.589c0 .86-.758 1.516-1.774 1.516zm-.494 1.32c.968 0 1.78-.42 2.193-1.137h.116v1.015h1.617v-5.056c0-1.57-1.069-2.498-2.971-2.498-1.761 0-2.986.832-3.121 2.139h1.584c.156-.501.684-.772 1.455-.772.907 0 1.395.406 1.395 1.13v.623l-1.909.116c-1.801.108-2.81.88-2.81 2.22 0 1.354 1.023 2.22 2.451 2.22zm5.489-.122h1.679v-4.312c0-1.09.629-1.78 1.631-1.78 1.022 0 1.496.569 1.496 1.699v4.393h1.679v-4.792c0-1.767-.9-2.762-2.552-2.762-1.104 0-1.848.507-2.2 1.333h-.115v-1.184h-1.618v7.405zm8.034 0h1.672v-7.405h-1.672v7.405zm.832-8.63a1 1 0 0 0 1.002-1.01c0-.561-.446-1.015-1.002-1.015a1.01 1.01 0 0 0-1.001 1.016c0 .562.453 1.008 1.001 1.008zm5.658 8.78c2.214 0 3.561-1.45 3.561-3.852 0-2.397-1.354-3.852-3.561-3.852-2.2 0-3.56 1.462-3.56 3.852 0 2.403 1.34 3.852 3.56 3.852zm0-1.409c-1.171 0-1.841-.893-1.841-2.443 0-1.544.67-2.444 1.841-2.444 1.165 0 1.835.9 1.835 2.444 0 1.55-.664 2.443-1.835 2.443zm4.792 1.26h1.679v-4.313c0-1.09.629-1.78 1.631-1.78 1.022 0 1.496.569 1.496 1.699v4.393h1.679v-4.792c0-1.767-.9-2.762-2.552-2.762-1.104 0-1.848.507-2.2 1.333h-.115v-1.184h-1.618v7.405z" fill="#638DFF" fill-opacity=".6"/>
    <path fill-rule="evenodd" clip-rule="evenodd" d="M67.036 23.405c-3.855 0-6.08 2.98-6.08 6.937 0 3.956 2.225 6.936 6.08 6.936 3.8 0 6.081-2.98 6.081-6.936s-2.28-6.937-6.08-6.937zm0 20.973c-8.47 0-14.876-5.257-14.876-13.874s6.407-13.928 14.876-13.928c8.47 0 14.822 5.311 14.822 13.928s-6.352 13.874-14.822 13.874zM103.684 43.782V29.854c0-3.523-.543-6.178-4.126-6.178-3.746 0-4.778 3.035-4.778 6.882v13.224h-8.687V17.064h8.687l-.054 3.848h.109c1.465-2.385 3.909-4.336 7.763-4.336 7.764 0 9.773 4.986 9.773 11.435v15.77h-8.687zM127.029 44.386c-4.018 0-8.253-1.247-11.293-4.119l3.258-5.148c2.171 1.842 5.755 3.251 7.926 3.251 2.172 0 3.692-.541 3.692-2.276 0-1.734-3.909-2.601-4.886-2.926-4.452-1.138-8.361-2.71-8.361-8.237 0-5.203 4.56-8.4 10.153-8.4 5.592 0 8.741 2.059 10.261 3.305l-2.823 5.095c-1.52-1.193-4.561-2.602-6.732-2.602-2.064 0-3.204.542-3.204 1.951 0 1.41 2.063 2.06 3.909 2.601 4.615 1.355 9.447 2.764 9.447 8.671 0 6.395-5.809 8.834-11.347 8.834zM160.202 43.781V29.745c0-3.252-.434-6.07-4.072-6.07s-4.778 3.035-4.778 6.991v13.115h-8.687V6.388h8.687v8.887c0 2.71-.054 5.636-.054 5.636 1.357-2.384 3.909-4.335 7.872-4.335 7.764 0 9.773 4.932 9.773 11.435v15.77h-8.741zM174.534 43.79h8.687V17.072h-8.687V43.79zm4.344-29.807c-2.932 0-4.941-1.788-4.941-4.498 0-2.655 2.009-4.498 4.941-4.498s4.941 1.843 4.941 4.498c0 2.71-2.009 4.498-4.941 4.498zM203.852 23.405c-3.692 0-6.244 2.818-6.244 6.937 0 4.118 2.552 6.936 6.244 6.936 3.746 0 6.298-2.818 6.298-6.936 0-4.12-2.552-6.937-6.298-6.937zm2.498 20.973c-3.964 0-6.787-1.464-8.47-3.956V53.59h-8.687V17.064h8.253l-.055 3.414h.109c1.954-2.33 4.832-3.902 8.904-3.902 7.709 0 12.596 6.016 12.596 13.874 0 7.858-4.887 13.928-12.65 13.928zM38.531 47.058c-2.256 2.253-5.957 2.253-8.213 0-1.024-1.02-1.595-2.522-1.595-4.144.03-1.592.602-3.063 1.595-4.054.992-.991 1.293-1.532 1.745-2.433l.15-.27c1.745-3.214 1.294-5.826.361-7.088-.541-.72-1.294-1.14-2.106-1.14-.12 0-.301.03-.542.09-1.805.39-2.377 2.041-2.978 4.354a11.885 11.885 0 0 1-1.294 2.853l-.03.06c-.361.63-.903 1.231-1.655 1.772l-.06.06c-.813.57-1.745.9-2.738.9-2.497 0-4.694-2.162-5.777-5.645-.632-2.373-1.263-4.205-3.28-4.415-1.113-.09-2.166.54-2.707 1.742-.542 1.171-.602 2.793-.12 4.415.541 1.862 1.113 3.123 2.768 4.775.992.99 1.594 2.492 1.594 4.054.03 1.592-.541 3.123-1.594 4.144a5.737 5.737 0 0 1-4.092 1.682c-1.565 0-3.009-.6-4.092-1.682-2.257-2.252-2.257-5.946 0-8.198 4.393-4.385 4.754-9.49.963-13.995-.301-.36-.632-.69-.963-1.021a5.715 5.715 0 0 1-1.685-4.084c0-1.532.572-2.974 1.685-4.085.842-.84 1.685-1.291 2.978-1.591.602-.15 1.475-.15 2.197-.03 1.504.27 2.828 1.14 3.73 2.402a5.765 5.765 0 0 1 .963 4.235c-.39 1.741-.33 3.333.181 4.744.18.481.391.962.692 1.412 1.444 2.162 3.79 3.424 6.408 3.544h.03v.03h.211c2.678-.03 5.175-1.352 6.62-3.574 1.143-1.682 1.383-3.754.842-6.156-.27-1.532.09-3.034.963-4.325.902-1.291 2.196-2.132 3.73-2.403.873-.18 1.324-.12 2.257.03 2.106.45 3.73 1.922 4.333 4.025a5.694 5.694 0 0 1-1.445 5.766c-2.798 2.793-4.001 5.886-3.43 8.98.361 2.102 1.505 4.144 3.43 6.066 2.227 2.252 2.227 5.946-.03 8.198zm1.264-9.52c-1.655-1.651-2.648-3.363-2.949-5.105-.42-2.493.572-5.045 2.949-7.388 2.016-2.012 2.708-4.805 1.895-7.538-.812-2.703-2.978-4.655-5.716-5.255h-.06c-1.023-.15-1.715-.24-2.889-.03-2.015.39-3.73 1.471-4.904 3.153a7.59 7.59 0 0 0-1.233 5.676v.09c.42 1.892.24 3.484-.602 4.715a6.156 6.156 0 0 1-5.115 2.733h-.24c-2.017-.09-3.822-1.081-4.935-2.733a5.4 5.4 0 0 1-.511-1.021c-.362-1.081-.422-2.313-.09-3.724.39-1.982-.06-3.994-1.204-5.676-1.174-1.652-2.919-2.793-4.904-3.123a7.463 7.463 0 0 0-2.949.06c-1.595.39-2.798.99-3.821 2.042C1.103 15.886.32 17.777.32 19.82c0 2.042.782 3.934 2.196 5.375.3.3.572.6.842.931 3.19 3.814 2.919 7.808-.842 11.562-2.979 2.974-2.979 7.779 0 10.722 1.444 1.441 3.34 2.192 5.386 2.192 2.045 0 3.94-.78 5.385-2.372 1.354-1.352 2.136-3.334 2.106-5.406 0-2.042-.782-3.994-2.106-5.316-1.414-1.381-1.835-2.372-2.317-3.994-.36-1.171-.33-2.373.03-3.123.09-.24.392-.751.903-.691.542.06.993.3 1.715 3.093v.06c1.294 4.265 4.182 6.908 7.552 6.908 1.384 0 2.708-.45 3.821-1.262l.06-.06c.933-.69 1.655-1.441 2.136-2.312.632-.961 1.144-2.042 1.535-3.304v-.06c.632-2.522.993-2.973 1.625-3.093l.09-.03h.06c.3 0 .541.24.662.39.632.871.752 2.853-.512 5.166l-.15.3c-.481.841-.662 1.201-1.444 2.012-1.324 1.322-2.106 3.274-2.136 5.316 0 2.072.752 4.024 2.136 5.406 2.979 2.973 7.792 2.973 10.74 0a7.567 7.567 0 0 0 0-10.692zM12.656 4.982a2.38 2.38 0 0 1 2.377 2.373 2.36 2.36 0 0 1-2.377 2.372 2.36 2.36 0 0 1-2.377-2.372 2.36 2.36 0 0 1 2.377-2.373zm0 6.487c2.287 0 4.182-1.832 4.182-4.144 0-2.313-1.895-4.145-4.182-4.145-2.286 0-4.182 1.832-4.182 4.145 0 2.312 1.896 4.144 4.182 4.144zM31.25 2.25c1.926 0 3.52 1.592 3.52 3.514 0 .931-.39 1.832-1.023 2.493a3.532 3.532 0 0 1-2.497 1.02h-.09c-1.895-.06-3.43-1.62-3.43-3.513a3.521 3.521 0 0 1 3.52-3.514zm-.15 8.83h.12c1.414 0 2.768-.54 3.761-1.562a5.316 5.316 0 0 0 1.565-3.754A5.311 5.311 0 0 0 31.22.448a5.286 5.286 0 0 0-5.295 5.316c0 2.853 2.317 5.256 5.175 5.316z" fill="#638DFF"/>
</svg>
