<svg id="Layer_1" data-name="Layer 1" xmlns="http://www.w3.org/2000/svg" viewBox="0 0 280 280"><defs><style>.cls-1{fill:#7883b1;}.cls-2{fill:#f5333f;}.cls-3{fill:#1a3f81;}.cls-4{fill:#b4b8d3;}.cls-5{fill:#475b95;}</style></defs><title>AH-BoatLogo for Application-F</title><path class="cls-1" d="M143.52,94.36v27.05l71.94,16a5.61,5.61,0,0,0,6.84-5.49V94.36Z"/><path class="cls-2" d="M136.48,94.36H57.7V128.2c0,5.41.78,7,2.1,8.09a5.68,5.68,0,0,0,4.74,1.1l71.94-16Z"/><path class="cls-3" d="M91.46,49.87H63.33a5.63,5.63,0,0,0-5.63,5.62V87.33h78.78V49.87Z"/><path class="cls-4" d="M255.63,253.56c-22.86,7.1-25.28-17.3-41.82-13.85a23.08,23.08,0,0,0-4.73,1.6,34,34,0,0,0-3.22,1.72c-5.73,3.44-10.38,8-17.34,8-12.08,0-16.36-10.56-26.77-14.75-11.53-4.19-21.75,9.54-32.81,10.46-11.72,1-18.87-12.1-31.69-9.55-9.4,1.78-14,9-21.28,13.19-.28.16-.57.31-.86.46a22.21,22.21,0,0,1-4.64,1.83c-16.17,3.83-21.93-21.86-42.57-7.83-1.3,1.09-2.6,2.55-3.9,3.65v.9c1.67-.36,7.06-4.55,11.15-5.1C47.79,241.36,54.3,256.11,65.08,259c7.07,2,12.42-1.12,17.36-4.63,5.19-3.7,9.92-7.79,15.73-6.67,6.52,1.18,10.36,3.87,14,6.38,4.23,2.93,8.14,5.62,15.64,5.37,5.76-.19,11.59-3.09,17.37-5.82a57.52,57.52,0,0,1,11-4.29c5.15-1.28,9.26,1,13.44,3.92,5.31,3.68,10.73,8.27,18.53,7.55,6-.71,10.14-4.44,14.41-8.06,3.37-2.86,6.84-5.66,11.43-6.87,16.17-4.55,21.93,19.85,42,8.2Z"/><path class="cls-5" d="M138.86,130.36l-94.59,21a5.25,5.25,0,0,0-3.74,7.08L72,237.17c.37.92,1.71,4.16,3.09,6.76.29-.15.58-.3.86-.46,7.3-4.19,11.88-11.41,21.28-13.19,12.82-2.55,20,10.54,31.69,9.55,3.76-.31,7.41-2.1,11.06-4.17V130.24A5.45,5.45,0,0,0,138.86,130.36Z"/><path class="cls-3" d="M239.23,154.06a5.27,5.27,0,0,0-3.51-2.68l-94.58-21a5.52,5.52,0,0,0-1.14-.12V235.66c7.09-4,14.14-9.06,21.75-6.29,10.41,4.19,14.69,14.75,26.77,14.75,7,0,11.61-4.54,17.34-8a36.43,36.43,0,0,1,3.22-1.71l30.38-76A5.18,5.18,0,0,0,239.23,154.06Z"/><path class="cls-4" d="M156,33.61a3.42,3.42,0,0,0-.65,6.8,34.89,34.89,0,0,1,31.39,38,3.42,3.42,0,1,0,6.8.65A41.73,41.73,0,0,0,156,33.61Zm0,0"/><path class="cls-4" d="M157.36,19.1a3.42,3.42,0,1,0-.65,6.8c28,2.68,47.19,25.85,44.51,53.9a3.42,3.42,0,1,0,6.81.65c3.06-32.05-18.69-58.3-50.67-61.35Zm0,0"/><path class="cls-4" d="M154.59,48.12a3.42,3.42,0,0,0-.65,6.81A20.3,20.3,0,0,1,172.2,77a3.42,3.42,0,1,0,6.8.65,27.14,27.14,0,0,0-24.41-29.56Zm0,0"/><circle class="cls-3" cx="154.59" cy="73.17" r="7.6"/></svg>