<svg xmlns="http://www.w3.org/2000/svg" enable-background="new 0 0 512 512" viewBox="0 0 2000 1000"><defs><mask id="Mask-1"><rect x="-106.8" y="-112.2" width="2000" height="1000" fill="#fff"/></mask></defs><style>
@keyframes a_w { 0% { width: 0px; } 100% { width: 1787px; } }
@keyframes b_t { 0% { transform: translate(1904.6px,391.9px) scale(.7,.7); } 100% { transform: translate(-199.7px,391.9px) scale(.7,.7); } }
@keyframes c_t { 0% { transform: translate(1908.6px,-134.4px) scale(.7,.7); } 50% { transform: translate(-207.2px,-134.4px) scale(.7,.7); } 100% { transform: translate(-207.2px,-134.4px) scale(.7,.7); } }
@keyframes d_t { 0% { transform: translate(1908.6px,-134.4px) scale(.7,.7); } 50% { transform: translate(1908.6px,-134.4px) scale(.7,.7); } 100% { transform: translate(-207.2px,-134.4px) scale(.7,.7); } }
@keyframes e_t { 0% { transform: translate(1907px,54.6px) scale(.7,.7); } 25% { transform: translate(-245px,54.6px) scale(.7,.7); } 100% { transform: translate(-245px,54.6px) scale(.7,.7); } }
@keyframes f_t { 0% { transform: translate(1907px,54.6px) scale(.7,.7); } 25% { transform: translate(1907px,54.6px) scale(.7,.7); } 50% { transform: translate(-245px,54.6px) scale(.7,.7); } 100% { transform: translate(-245px,54.6px) scale(.7,.7); } }
@keyframes g_t { 0% { transform: translate(1907px,54.6px) scale(.7,.7); } 50% { transform: translate(1907px,54.6px) scale(.7,.7); } 75% { transform: translate(-245px,54.6px) scale(.7,.7); } 100% { transform: translate(-245px,54.6px) scale(.7,.7); } }
@keyframes h_t { 0% { transform: translate(1907px,54.6px) scale(.7,.7); } 75% { transform: translate(1907px,54.6px) scale(.7,.7); } 100% { transform: translate(-245px,54.6px) scale(.7,.7); } }
@keyframes i_t { 0% { transform: translate(1916.1px,286.6px) scale(.7,.7); } 12.5% { transform: translate(-298.9px,286.6px) scale(.7,.7); } 100% { transform: translate(-298.9px,286.6px) scale(.7,.7); } }
@keyframes j_t { 0% { transform: translate(1916.1px,286.6px) scale(.7,.7); } 12.5% { transform: translate(1916.1px,286.6px) scale(.7,.7); } 25% { transform: translate(-298.9px,286.6px) scale(.7,.7); } 100% { transform: translate(-298.9px,286.6px) scale(.7,.7); } }
@keyframes k_t { 0% { transform: translate(1916.1px,286.6px) scale(.7,.7); } 25% { transform: translate(1916.1px,286.6px) scale(.7,.7); } 37.5% { transform: translate(-298.9px,286.6px) scale(.7,.7); } 100% { transform: translate(-298.9px,286.6px) scale(.7,.7); } }
@keyframes l_t { 0% { transform: translate(1916.1px,286.6px) scale(.7,.7); } 37.5% { transform: translate(1916.1px,286.6px) scale(.7,.7); } 50% { transform: translate(-298.9px,286.6px) scale(.7,.7); } 100% { transform: translate(-298.9px,286.6px) scale(.7,.7); } }
@keyframes m_t { 0% { transform: translate(1916.1px,286.6px) scale(.7,.7); } 50% { transform: translate(1916.1px,286.6px) scale(.7,.7); } 62.5% { transform: translate(-298.9px,286.6px) scale(.7,.7); } 100% { transform: translate(-298.9px,286.6px) scale(.7,.7); } }
@keyframes n_t { 0% { transform: translate(1916.1px,286.6px) scale(.7,.7); } 62.5% { transform: translate(1916.1px,286.6px) scale(.7,.7); } 75% { transform: translate(-298.9px,286.6px) scale(.7,.7); } 100% { transform: translate(-298.9px,286.6px) scale(.7,.7); } }
@keyframes o_t { 0% { transform: translate(1916.1px,286.6px) scale(.7,.7); } 75% { transform: translate(1916.1px,286.6px) scale(.7,.7); } 87.5% { transform: translate(-298.9px,286.6px) scale(.7,.7); } 100% { transform: translate(-298.9px,286.6px) scale(.7,.7); } }
@keyframes p_t { 0% { transform: translate(1916.1px,286.6px) scale(.7,.7); } 87.5% { transform: translate(1916.1px,286.6px) scale(.7,.7); } 100% { transform: translate(-298.9px,286.6px) scale(.7,.7); } }
@keyframes q_t { 0% { transform: translate(714px,54.6px) scale(.7,.7) translate(396px,426px); } 5% { transform: translate(714px,40.6px) scale(.7,.7) translate(396px,426px); } 12.5% { transform: translate(714px,78.6px) scale(.7,.7) translate(396px,426px); } 17.5% { transform: translate(714px,12.6px) scale(.7,.7) translate(396px,426px); } 25% { transform: translate(713.9px,62.6px) scale(.7,.7) translate(396px,426px); } 30% { transform: translate(714.2px,40.6px) scale(.7,.7) translate(396px,426px); } 37.5% { transform: translate(714.7px,109.6px) scale(.7,.7) translate(396px,426px); } 50% { transform: translate(713.9px,62.6px) scale(.7,.7) translate(396px,426px); } 55% { transform: translate(713.9px,-7.5px) scale(.7,.7) translate(396px,426px); } 62.5% { transform: translate(713.9px,80.9px) scale(.7,.7) translate(396px,426px); } 66.25% { transform: translate(714.4px,3.3px) scale(.7,.7) translate(396px,426px); } 75% { transform: translate(715.5px,62.6px) scale(.7,.7) translate(396px,426px); } 82.5% { transform: translate(715px,80.9px) scale(.7,.7) translate(396px,426px); } 87.5% { transform: translate(714.7px,62.6px) scale(.7,.7) translate(396px,426px); } 92.5% { transform: translate(714.4px,26.6px) scale(.7,.7) translate(396px,426px); } 100% { transform: translate(714px,54.6px) scale(.7,.7) translate(396px,426px); } }
</style><g mask="url(#Mask-1)" transform="translate(106.8,112.2)"><rect width="0" height="21" rx="10" transform="translate(0,778.8)" style="animation: 8s linear both a_w;"/><path d="M18.1 246.2h45.1c9.9 0 18-8.1 18-18.1c0-10.5-8.7-18.3-18.5-18c-2-10-10.8-18.1-22.1-18.1c-11.3 0-20.1 8.1-22.1 18.1c-0.2 0-0.3 0-0.4 0c-10 0-18.1 8.1-18.1 18c0 10 8.1 18.1 18.1 18.1Zm0-27.1c3.9 0 7.2 2.5 8.5 6c.8 2.3 3.4 3.6 5.7 2.7c2.4-0.8 3.6-3.4 2.8-5.7c-1.5-4.1-4.2-7.4-7.9-9.5c1-6.3 6.4-11.6 13.4-11.6c7.7 0 13.9 6.4 13.5 14.1c0 1.5 .7 3 1.9 3.9c1.2 .9 2.7 1.1 4.2 .6c5.8-2.1 12 2.2 12 8.5c0 5-4 9-9 9h-45.1c-5 0-9.1-4-9.1-9c0-5 4.1-9 9.1-9Z" transform="translate(1904.6,391.9) scale(.7,.7)" style="animation: 8s linear both b_t;"/><path d="M28 276h70c15.4 0 28-12.6 28-28c0-16.3-13.5-28.4-28.7-28c-3.1-15.4-16.8-28-34.3-28c-17.5 0-31.2 12.6-34.3 28c-0.2 0-0.5 0-0.7 0c-15.4 0-28 12.6-28 28c0 15.4 12.6 28 28 28Zm0-42c6.1 0 11.3 3.9 13.2 9.3c1.3 3.7 5.3 5.6 8.9 4.3c3.7-1.3 5.6-5.3 4.3-8.9c-2.2-6.3-6.5-11.5-12.2-14.8c1.5-9.8 9.9-17.9 20.8-17.9c11.9 0 21.5 9.9 21 21.9c-0.1 2.3 .9 4.6 2.8 5.9c1.9 1.4 4.3 1.8 6.5 1c9.1-3.2 18.7 3.5 18.7 13.2c0 7.7-6.3 14-14 14h-70c-7.7 0-14-6.3-14-14c0-7.7 6.3-14 14-14Z" transform="translate(1908.6,-134.4) scale(.7,.7)" style="animation: 8s linear both c_t;"/><path d="M28 276h70c15.4 0 28-12.6 28-28c0-16.3-13.5-28.4-28.7-28c-3.1-15.4-16.8-28-34.3-28c-17.5 0-31.2 12.6-34.3 28c-0.2 0-0.5 0-0.7 0c-15.4 0-28 12.6-28 28c0 15.4 12.6 28 28 28Zm0-42c6.1 0 11.3 3.9 13.2 9.3c1.3 3.7 5.3 5.6 8.9 4.3c3.7-1.3 5.6-5.3 4.3-8.9c-2.2-6.3-6.5-11.5-12.2-14.8c1.5-9.8 9.9-17.9 20.8-17.9c11.9 0 21.5 9.9 21 21.9c-0.1 2.3 .9 4.6 2.8 5.9c1.9 1.4 4.3 1.8 6.5 1c9.1-3.2 18.7 3.5 18.7 13.2c0 7.7-6.3 14-14 14h-70c-7.7 0-14-6.3-14-14c0-7.7 6.3-14 14-14Z" transform="translate(1908.6,-134.4) scale(.7,.7)" style="animation: 8s linear both d_t;"/><path d="M40 276h100c22.1 0 40-17.9 40-40c0-23.3-19.3-40.5-41-40c-4.4-22-24-40-49-40c-25 0-44.6 18-49 40c-0.3 0-0.7 0-1 0c-22.1 0-40 17.9-40 40c0 22.1 17.9 40 40 40Zm0-60c8.7 0 16.1 5.6 18.9 13.3c1.8 5.2 7.5 8 12.7 6.1c5.2-1.8 8-7.5 6.1-12.7c-3.2-9-9.3-16.4-17.4-21.2c2.1-13.9 14.2-25.5 29.7-25.5c17.1 0 30.7 14.2 30 31.3c-0.2 3.3 1.3 6.5 4 8.5c2.7 1.9 6.2 2.5 9.3 1.3c13-4.6 26.7 5 26.7 18.9c0 11-9 20-20 20h-100c-11 0-20-9-20-20c0-11 9-20 20-20Z" opacity=".9" transform="translate(1907,54.6) scale(.7,.7)" style="animation: 8s linear both e_t;"/><path d="M40 276h100c22.1 0 40-17.9 40-40c0-23.3-19.3-40.5-41-40c-4.4-22-24-40-49-40c-25 0-44.6 18-49 40c-0.3 0-0.7 0-1 0c-22.1 0-40 17.9-40 40c0 22.1 17.9 40 40 40Zm0-60c8.7 0 16.1 5.6 18.9 13.3c1.8 5.2 7.5 8 12.7 6.1c5.2-1.8 8-7.5 6.1-12.7c-3.2-9-9.3-16.4-17.4-21.2c2.1-13.9 14.2-25.5 29.7-25.5c17.1 0 30.7 14.2 30 31.3c-0.2 3.3 1.3 6.5 4 8.5c2.7 1.9 6.2 2.5 9.3 1.3c13-4.6 26.7 5 26.7 18.9c0 11-9 20-20 20h-100c-11 0-20-9-20-20c0-11 9-20 20-20Z" opacity=".9" transform="translate(1907,54.6) scale(.7,.7)" style="animation: 8s linear both f_t;"/><path d="M40 276h100c22.1 0 40-17.9 40-40c0-23.3-19.3-40.5-41-40c-4.4-22-24-40-49-40c-25 0-44.6 18-49 40c-0.3 0-0.7 0-1 0c-22.1 0-40 17.9-40 40c0 22.1 17.9 40 40 40Zm0-60c8.7 0 16.1 5.6 18.9 13.3c1.8 5.2 7.5 8 12.7 6.1c5.2-1.8 8-7.5 6.1-12.7c-3.2-9-9.3-16.4-17.4-21.2c2.1-13.9 14.2-25.5 29.7-25.5c17.1 0 30.7 14.2 30 31.3c-0.2 3.3 1.3 6.5 4 8.5c2.7 1.9 6.2 2.5 9.3 1.3c13-4.6 26.7 5 26.7 18.9c0 11-9 20-20 20h-100c-11 0-20-9-20-20c0-11 9-20 20-20Z" opacity=".9" transform="translate(1907,54.6) scale(.7,.7)" style="animation: 8s linear both g_t;"/><path d="M40 276h100c22.1 0 40-17.9 40-40c0-23.3-19.3-40.5-41-40c-4.4-22-24-40-49-40c-25 0-44.6 18-49 40c-0.3 0-0.7 0-1 0c-22.1 0-40 17.9-40 40c0 22.1 17.9 40 40 40Zm0-60c8.7 0 16.1 5.6 18.9 13.3c1.8 5.2 7.5 8 12.7 6.1c5.2-1.8 8-7.5 6.1-12.7c-3.2-9-9.3-16.4-17.4-21.2c2.1-13.9 14.2-25.5 29.7-25.5c17.1 0 30.7 14.2 30 31.3c-0.2 3.3 1.3 6.5 4 8.5c2.7 1.9 6.2 2.5 9.3 1.3c13-4.6 26.7 5 26.7 18.9c0 11-9 20-20 20h-100c-11 0-20-9-20-20c0-11 9-20 20-20Z" opacity=".9" transform="translate(1907,54.6) scale(.7,.7)" style="animation: 8s linear both h_t;"/><path d="M52.4 313.1h130.8c28.9 0 52.4-23.5 52.4-52.4c0-30.5-25.3-53-53.7-52.3c-5.8-28.9-31.4-52.4-64.1-52.4c-32.7 0-58.4 23.5-64.2 52.4c-0.4 0-0.8 0-1.2 0c-28.9 0-52.4 23.4-52.4 52.3c0 28.9 23.5 52.4 52.4 52.4Zm0-78.6c11.3 0 21.1 7.4 24.6 17.5c2.5 6.8 9.9 10.4 16.7 8c6.9-2.5 10.4-9.9 8-16.7c-4.1-11.8-12.2-21.5-22.7-27.7c2.7-18.3 18.5-33.4 38.8-33.4c22.3 0 40.2 18.5 39.2 40.9c-0.2 4.4 1.8 8.5 5.3 11.1c3.5 2.6 8.1 3.3 12.2 1.8c16.9-6 34.9 6.6 34.9 24.7c0 14.4-11.7 26.2-26.2 26.2h-130.8c-14.5 0-26.2-11.8-26.2-26.2c0-14.4 11.7-26.2 26.2-26.2Z" opacity=".65" transform="translate(1916.1,286.6) scale(.7,.7)" style="animation: 8s linear both i_t;"/><path d="M52.4 313.1h130.8c28.9 0 52.4-23.5 52.4-52.4c0-30.5-25.3-53-53.7-52.3c-5.8-28.9-31.4-52.4-64.1-52.4c-32.7 0-58.4 23.5-64.2 52.4c-0.4 0-0.8 0-1.2 0c-28.9 0-52.4 23.4-52.4 52.3c0 28.9 23.5 52.4 52.4 52.4Zm0-78.6c11.3 0 21.1 7.4 24.6 17.5c2.5 6.8 9.9 10.4 16.7 8c6.9-2.5 10.4-9.9 8-16.7c-4.1-11.8-12.2-21.5-22.7-27.7c2.7-18.3 18.5-33.4 38.8-33.4c22.3 0 40.2 18.5 39.2 40.9c-0.2 4.4 1.8 8.5 5.3 11.1c3.5 2.6 8.1 3.3 12.2 1.8c16.9-6 34.9 6.6 34.9 24.7c0 14.4-11.7 26.2-26.2 26.2h-130.8c-14.5 0-26.2-11.8-26.2-26.2c0-14.4 11.7-26.2 26.2-26.2Z" opacity=".65" transform="translate(1916.1,286.6) scale(.7,.7)" style="animation: 8s linear both j_t;"/><path d="M52.4 313.1h130.8c28.9 0 52.4-23.5 52.4-52.4c0-30.5-25.3-53-53.7-52.3c-5.8-28.9-31.4-52.4-64.1-52.4c-32.7 0-58.4 23.5-64.2 52.4c-0.4 0-0.8 0-1.2 0c-28.9 0-52.4 23.4-52.4 52.3c0 28.9 23.5 52.4 52.4 52.4Zm0-78.6c11.3 0 21.1 7.4 24.6 17.5c2.5 6.8 9.9 10.4 16.7 8c6.9-2.5 10.4-9.9 8-16.7c-4.1-11.8-12.2-21.5-22.7-27.7c2.7-18.3 18.5-33.4 38.8-33.4c22.3 0 40.2 18.5 39.2 40.9c-0.2 4.4 1.8 8.5 5.3 11.1c3.5 2.6 8.1 3.3 12.2 1.8c16.9-6 34.9 6.6 34.9 24.7c0 14.4-11.7 26.2-26.2 26.2h-130.8c-14.5 0-26.2-11.8-26.2-26.2c0-14.4 11.7-26.2 26.2-26.2Z" opacity=".65" transform="translate(1916.1,286.6) scale(.7,.7)" style="animation: 8s linear both k_t;"/><path d="M52.4 313.1h130.8c28.9 0 52.4-23.5 52.4-52.4c0-30.5-25.3-53-53.7-52.3c-5.8-28.9-31.4-52.4-64.1-52.4c-32.7 0-58.4 23.5-64.2 52.4c-0.4 0-0.8 0-1.2 0c-28.9 0-52.4 23.4-52.4 52.3c0 28.9 23.5 52.4 52.4 52.4Zm0-78.6c11.3 0 21.1 7.4 24.6 17.5c2.5 6.8 9.9 10.4 16.7 8c6.9-2.5 10.4-9.9 8-16.7c-4.1-11.8-12.2-21.5-22.7-27.7c2.7-18.3 18.5-33.4 38.8-33.4c22.3 0 40.2 18.5 39.2 40.9c-0.2 4.4 1.8 8.5 5.3 11.1c3.5 2.6 8.1 3.3 12.2 1.8c16.9-6 34.9 6.6 34.9 24.7c0 14.4-11.7 26.2-26.2 26.2h-130.8c-14.5 0-26.2-11.8-26.2-26.2c0-14.4 11.7-26.2 26.2-26.2Z" opacity=".65" transform="translate(1916.1,286.6) scale(.7,.7)" style="animation: 8s linear both l_t;"/><path d="M52.4 313.1h130.8c28.9 0 52.4-23.5 52.4-52.4c0-30.5-25.3-53-53.7-52.3c-5.8-28.9-31.4-52.4-64.1-52.4c-32.7 0-58.4 23.5-64.2 52.4c-0.4 0-0.8 0-1.2 0c-28.9 0-52.4 23.4-52.4 52.3c0 28.9 23.5 52.4 52.4 52.4Zm0-78.6c11.3 0 21.1 7.4 24.6 17.5c2.5 6.8 9.9 10.4 16.7 8c6.9-2.5 10.4-9.9 8-16.7c-4.1-11.8-12.2-21.5-22.7-27.7c2.7-18.3 18.5-33.4 38.8-33.4c22.3 0 40.2 18.5 39.2 40.9c-0.2 4.4 1.8 8.5 5.3 11.1c3.5 2.6 8.1 3.3 12.2 1.8c16.9-6 34.9 6.6 34.9 24.7c0 14.4-11.7 26.2-26.2 26.2h-130.8c-14.5 0-26.2-11.8-26.2-26.2c0-14.4 11.7-26.2 26.2-26.2Z" opacity=".65" transform="translate(1916.1,286.6) scale(.7,.7)" style="animation: 8s linear both m_t;"/><path d="M52.4 313.1h130.8c28.9 0 52.4-23.5 52.4-52.4c0-30.5-25.3-53-53.7-52.3c-5.8-28.9-31.4-52.4-64.1-52.4c-32.7 0-58.4 23.5-64.2 52.4c-0.4 0-0.8 0-1.2 0c-28.9 0-52.4 23.4-52.4 52.3c0 28.9 23.5 52.4 52.4 52.4Zm0-78.6c11.3 0 21.1 7.4 24.6 17.5c2.5 6.8 9.9 10.4 16.7 8c6.9-2.5 10.4-9.9 8-16.7c-4.1-11.8-12.2-21.5-22.7-27.7c2.7-18.3 18.5-33.4 38.8-33.4c22.3 0 40.2 18.5 39.2 40.9c-0.2 4.4 1.8 8.5 5.3 11.1c3.5 2.6 8.1 3.3 12.2 1.8c16.9-6 34.9 6.6 34.9 24.7c0 14.4-11.7 26.2-26.2 26.2h-130.8c-14.5 0-26.2-11.8-26.2-26.2c0-14.4 11.7-26.2 26.2-26.2Z" opacity=".65" transform="translate(1916.1,286.6) scale(.7,.7)" style="animation: 8s linear both n_t;"/><path d="M52.4 313.1h130.8c28.9 0 52.4-23.5 52.4-52.4c0-30.5-25.3-53-53.7-52.3c-5.8-28.9-31.4-52.4-64.1-52.4c-32.7 0-58.4 23.5-64.2 52.4c-0.4 0-0.8 0-1.2 0c-28.9 0-52.4 23.4-52.4 52.3c0 28.9 23.5 52.4 52.4 52.4Zm0-78.6c11.3 0 21.1 7.4 24.6 17.5c2.5 6.8 9.9 10.4 16.7 8c6.9-2.5 10.4-9.9 8-16.7c-4.1-11.8-12.2-21.5-22.7-27.7c2.7-18.3 18.5-33.4 38.8-33.4c22.3 0 40.2 18.5 39.2 40.9c-0.2 4.4 1.8 8.5 5.3 11.1c3.5 2.6 8.1 3.3 12.2 1.8c16.9-6 34.9 6.6 34.9 24.7c0 14.4-11.7 26.2-26.2 26.2h-130.8c-14.5 0-26.2-11.8-26.2-26.2c0-14.4 11.7-26.2 26.2-26.2Z" opacity=".65" transform="translate(1916.1,286.6) scale(.7,.7)" style="animation: 8s linear both o_t;"/><path d="M52.4 313.1h130.8c28.9 0 52.4-23.5 52.4-52.4c0-30.5-25.3-53-53.7-52.3c-5.8-28.9-31.4-52.4-64.1-52.4c-32.7 0-58.4 23.5-64.2 52.4c-0.4 0-0.8 0-1.2 0c-28.9 0-52.4 23.4-52.4 52.3c0 28.9 23.5 52.4 52.4 52.4Zm0-78.6c11.3 0 21.1 7.4 24.6 17.5c2.5 6.8 9.9 10.4 16.7 8c6.9-2.5 10.4-9.9 8-16.7c-4.1-11.8-12.2-21.5-22.7-27.7c2.7-18.3 18.5-33.4 38.8-33.4c22.3 0 40.2 18.5 39.2 40.9c-0.2 4.4 1.8 8.5 5.3 11.1c3.5 2.6 8.1 3.3 12.2 1.8c16.9-6 34.9 6.6 34.9 24.7c0 14.4-11.7 26.2-26.2 26.2h-130.8c-14.5 0-26.2-11.8-26.2-26.2c0-14.4 11.7-26.2 26.2-26.2Z" opacity=".65" transform="translate(1916.1,286.6) scale(.7,.7)" style="animation: 8s linear both p_t;"/><path d="M86 50h-121c-5.5 0-10-4.5-10-10c0-5.5 4.5-10 10-10h121c5.5 0 10-4.5 10-10c0-2.9-1.3-5.7-3.6-7.6l-2.7-2.4h-49.7c-5.5 0-10-4.5-10-10c0-5.5 4.5-10 10-10h25.9c-15.9-12.9-35.9-20-56.5-20h-105.3l23 22.9c2.8 2.9 3.7 7.2 2.1 10.9c-1.5 3.8-5.2 6.2-9.2 6.2h-80c-3 0-5.8-1.3-7.7-3.6l-30.3-36.4h-101c-2.7 0-5.2-1.1-7.1-2.9l-37-37.1h-23.9l45.9 68.8c13 19.5 34.7 31.2 58.1 31.2h138c5.5 0 10 4.5 10 10c0 5.5-4.5 10-10 10h-138c-30.1 0-58-15-74.7-40.1l-56.3-84.4c-2-3-2.2-7-0.5-10.2c1.8-3.3 5.1-5.3 8.8-5.3h46.7c2.7 0 5.2 1.1 7.1 2.9l37 37.1h80.2l-53-63.6c-2.5-3-3-7.1-1.4-10.6c1.7-3.6 5.2-5.8 9.1-5.8h60c2.7 0 5.2 1.1 7.1 2.9l77 77.1h125.3c26 0 51.2 9.2 71 26l2.6 2.2c7.8 6.6 15.5 13.1 22.4 18.9c6.7 5.7 10.6 14.1 10.6 22.9c0 16.5-13.5 30-30 30Zm-312-144.9c21 25.3 61.6 74 70.7 84.9h51.2l-100-100h-34.5Zm-34 104.9c5.5 0 10-4.5 10-10c0-5.5-4.5-10-10-10c-5.5 0-10 4.5-10 10c0 5.5 4.5 10 10 10Zm50-10c0 5.5-4.5 10-10 10c-5.5 0-10-4.5-10-10c0-5.5 4.5-10 10-10c5.5 0 10 4.5 10 10Zm170 10c5.5 0 10-4.5 10-10c0-5.5-4.5-10-10-10c-5.5 0-10 4.5-10 10c0 5.5 4.5 10 10 10Zm40 0c5.5 0 10-4.5 10-10c0-5.5-4.5-10-10-10c-5.5 0-10 4.5-10 10c0 5.5 4.5 10 10 10Zm-70 30c0 5.5-4.5 10-10 10c-5.5 0-10-4.5-10-10c0-5.5 4.5-10 10-10c5.5 0 10 4.5 10 10Z" fill-rule="evenodd" transform="translate(714,54.6) scale(.7,.7) translate(396,426)" style="animation: 8s linear both q_t;"/></g></svg>