<svg width="80" height="80" viewBox="0 0 80 80" fill="none" xmlns="http://www.w3.org/2000/svg">
    <path fill-rule="evenodd" clip-rule="evenodd" d="M33.318 32.068c-.826.825-2.114 2.11-2.94 2.872l-.064.063c-.954.952-.763 1.903-.573 2.475 0 .063 0 .063.064.126.7 1.713 1.716 3.363 3.241 5.266 2.733 3.425 5.656 6.027 8.897 8.057.445.254.827.444 1.27.698.383.19.7.317.954.508.064 0 .064.063.128.063 1.016.507 1.97.318 2.796-.508l3.893-3.886c.318-.318.763-.698 1.335-.698.508 0 .954.38 1.271.698l5.465 5.455c.89.889.89 1.777-.063 2.729-.381.38-4.5 4.555-4.5 4.555-.953 1.015-2.098 1.459-3.56 1.459h-.444c-2.923-.19-5.656-1.332-7.689-2.284a43.712 43.712 0 0 1-14.553-11.42c-3.368-4.06-5.592-7.802-7.118-11.8-.89-2.41-1.27-4.314-1.08-6.09.063-1.078.508-2.03 1.334-2.791l4.755-4.747c.317-.316.762-.634 1.334-.634.572 0 1.017.318 1.335.634l1.779 1.777.953.952 2.733 2.727c.318.318.699.825.699 1.333 0 .507-.381 1.015-.699 1.332-.381.508-.636.762-.953 1.079z" fill="#04B74F" stroke="#04B74F" stroke-width="3.2" stroke-linejoin="round"/>
    <path d="M44.297 20.005c4.562-.106 9.158 1.574 12.64 5.05a17.202 17.202 0 0 1 5.055 12.732M52.387 37.786a7.662 7.662 0 0 0-2.233-5.96 7.687 7.687 0 0 0-5.857-2.235" stroke="#04B74F" stroke-opacity=".5" stroke-width="3.2" stroke-linecap="round" stroke-linejoin="round"/>
</svg>
