<svg xmlns="http://www.w3.org/2000/svg" width="200" height="150" viewBox="0 0 200 150">
    <g fill="none" fill-rule="evenodd">
        <g>
            <g>
                <path d="M0 0H200V150H0z" transform="translate(-170 -58) translate(170 58)"/>
                <g fill="#0095F2" fill-rule="nonzero">
                    <path d="M12.853 34.095C5.536 34.095 0 29.542 0 22.085c0-7.456 5.536-12.053 12.853-12.053 7.318 0 12.803 4.597 12.803 12.054.007 7.462-5.485 12.01-12.803 12.01m0-18.15c-3.331 0-5.252 2.582-5.252 6.001 0 3.42 1.921 6.002 5.252 6.002 3.281 0 5.253-2.582 5.253-6.002s-1.965-6.001-5.253-6.001M44.518 33.579V21.525c0-3.048-.466-5.346-3.565-5.346-3.237 0-4.125 2.626-4.125 5.957v11.443h-7.506V10.454h7.506l-.044 3.331h.095c1.266-2.065 3.375-3.753 6.707-3.753 6.707 0 8.445 4.314 8.445 9.9v13.653h-7.513v-.006zM64.689 34.095c-3.47 0-7.129-1.077-9.755-3.564l2.815-4.459c1.877 1.593 4.975 2.815 6.845 2.815 1.877 0 3.193-.466 3.193-1.971 0-1.505-3.375-2.255-4.22-2.532-3.847-.982-7.222-2.342-7.222-7.129 0-4.502 3.942-7.273 8.772-7.273s7.55 1.782 8.867 2.859l-2.437 4.408c-1.316-1.033-3.942-2.254-5.819-2.254-1.782 0-2.765.466-2.765 1.687 0 1.222 1.783 1.783 3.376 2.255 3.986 1.171 8.162 2.393 8.162 7.507-.007 5.541-5.026 7.651-9.812 7.651M93.35 33.579V21.43c0-2.815-.379-5.252-3.521-5.252-3.143 0-4.125 2.626-4.125 6.052v11.354h-7.507V1.215h7.507v7.696c0 2.343-.044 4.88-.044 4.88 1.171-2.065 3.375-3.753 6.801-3.753 6.707 0 8.445 4.27 8.445 9.9v13.653H93.35v-.012zM109.484 7.784c-2.532 0-4.27-1.55-4.27-3.892 0-2.299 1.738-3.892 4.27-3.892 2.531 0 4.27 1.593 4.27 3.892 0 2.343-1.739 3.892-4.27 3.892m-3.754 2.67h7.507v23.125h-7.507V10.454zM133.22 34.095c-3.427 0-5.864-1.266-7.319-3.426v11.399h-7.506V10.454h7.129l-.044 2.954h.094c1.688-2.016 4.175-3.376 7.696-3.376 6.663 0 10.882 5.208 10.882 12.01 0 6.801-4.226 12.053-10.933 12.053m-2.16-18.15c-3.193 0-5.397 2.438-5.397 6.002 0 3.565 2.204 6.002 5.397 6.002 3.237 0 5.441-2.437 5.441-6.002 0-3.564-2.204-6.001-5.44-6.001" transform="translate(-170 -58) translate(170 58) translate(49.839 43.967)"/>
                </g>
                <g fill="#0095F2" fill-rule="nonzero">
                    <path d="M34.158 32.143c-1.43-1.43-2.286-2.91-2.55-4.421-.366-2.16.49-4.364 2.55-6.392 1.745-1.744 2.337-4.156 1.638-6.524-.7-2.337-2.576-4.03-4.938-4.547h-.05c-.882-.132-1.48-.208-2.494-.025-1.744.34-3.224 1.272-4.238 2.726-.989 1.43-1.38 3.2-1.065 4.913v.075c.366 1.638.208 3.017-.522 4.081-.989 1.48-2.652 2.368-4.421 2.368h-.208c-1.744-.076-3.3-.938-4.263-2.368-.183-.283-.34-.598-.441-.882-.315-.938-.366-2.002-.076-3.224.34-1.713-.05-3.457-1.039-4.912-1.014-1.43-2.519-2.418-4.238-2.702-.857-.157-1.77-.132-2.55.05-1.38.34-2.42.857-3.3 1.77C.73 13.401.056 15.04.056 16.81c0 1.769.674 3.406 1.895 4.653.258.258.491.523.73.806 2.76 3.3 2.52 6.758-.73 10.007-2.575 2.576-2.575 6.732 0 9.283 1.247 1.247 2.885 1.895 4.654 1.895 1.77 0 3.407-.673 4.654-2.053 1.171-1.171 1.845-2.884 1.82-4.679 0-1.77-.674-3.457-1.82-4.603-1.222-1.197-1.587-2.053-2.003-3.458-.314-1.014-.283-2.053.026-2.701.075-.208.34-.649.78-.599.467.05.857.259 1.48 2.677v.05c1.115 3.69 3.615 5.977 6.525 5.977 1.196 0 2.336-.39 3.3-1.09l.05-.05c.806-.598 1.43-1.247 1.845-2.003.548-.831.989-1.77 1.33-2.859v-.05c.547-2.186.856-2.576 1.403-2.677l.076-.025h.05c.259 0 .466.208.573.34.548.756.65 2.469-.44 4.471l-.133.259c-.415.73-.573 1.039-1.247 1.744-1.146 1.146-1.82 2.834-1.845 4.604 0 1.794.649 3.482 1.845 4.679 2.576 2.575 6.733 2.575 9.283 0 2.544-2.589 2.544-6.695 0-9.264zm-1.09 8.237c-1.952 1.952-5.144 1.952-7.097 0-.881-.881-1.379-2.185-1.379-3.59.025-1.379.523-2.65 1.38-3.507.856-.857 1.114-1.329 1.504-2.104l.133-.233c1.505-2.783 1.114-5.044.315-6.133-.466-.624-1.115-.99-1.82-.99-.108 0-.259.026-.466.076-1.562.34-2.054 1.77-2.576 3.773-.284.938-.674 1.77-1.115 2.468l-.025.05c-.315.549-.781 1.065-1.43 1.537l-.05.05c-.699.492-1.505.782-2.368.782-2.16 0-4.056-1.87-4.994-4.887-.548-2.053-1.09-3.64-2.834-3.823-.963-.076-1.87.466-2.336 1.505-.466 1.014-.523 2.418-.107 3.823.466 1.612.963 2.701 2.393 4.131.856.856 1.379 2.16 1.379 3.508.025 1.379-.466 2.701-1.38 3.59-.938.938-2.184 1.454-3.532 1.454-1.348 0-2.601-.523-3.533-1.455-1.952-1.952-1.952-5.145 0-7.097 3.797-3.797 4.106-8.212.831-12.117-.258-.314-.548-.598-.831-.881-.938-.939-1.455-2.186-1.455-3.533 0-1.329.491-2.576 1.455-3.533.73-.73 1.455-1.115 2.576-1.38.522-.132 1.272-.132 1.895-.025 1.298.233 2.444.99 3.225 2.079.755 1.09 1.039 2.393.83 3.665-.34 1.505-.283 2.884.158 4.106.158.416.34.831.599 1.222 1.246 1.87 3.274 2.966 5.535 3.067h.025v.025h.183c2.311-.025 4.471-1.172 5.718-3.092.989-1.455 1.197-3.25.73-5.328-.232-1.329.076-2.626.832-3.74.78-1.116 1.896-1.846 3.224-2.08.756-.157 1.147-.106 1.953.026 1.82.39 3.224 1.663 3.74 3.483.548 1.794.076 3.665-1.247 4.994-2.418 2.418-3.457 5.094-2.966 7.77.315 1.82 1.298 3.59 2.966 5.253 1.909 1.946 1.909 5.139-.037 7.091zM10.712 9.579c1.978 0 3.615-1.587 3.615-3.59s-1.637-3.59-3.615-3.59c-1.977 0-3.615 1.587-3.615 3.59s1.638 3.59 3.615 3.59zm0-5.618c1.115 0 2.053.907 2.053 2.053s-.907 2.053-2.053 2.053S8.66 7.16 8.66 6.014s.907-2.053 2.053-2.053zM26.645 9.239h.107c1.222 0 2.393-.466 3.25-1.354.856-.857 1.354-2.028 1.354-3.25 0-2.55-2.053-4.604-4.604-4.604-2.55 0-4.572 2.054-4.572 4.604-.006 2.475 1.996 4.553 4.465 4.604zm.132-7.646c1.663 0 3.042 1.38 3.042 3.042 0 .806-.34 1.587-.882 2.16-.573.573-1.354.882-2.16.882h-.075c-1.638-.05-2.966-1.405-2.966-3.042 0-1.663 1.347-3.042 3.041-3.042z" transform="translate(-170 -58) translate(170 58) translate(5 40)"/>
                </g>
                <text fill="#0095F2" font-family="SFProText-Medium, SF Pro Text" font-size="13" font-weight="400" letter-spacing="-.433" transform="translate(-170 -58) translate(170 58)">
                    <tspan x="4.297" y="123">The Seafarers Trusty Companion</tspan>
                </text>
            </g>
        </g>
    </g>
</svg>
