<svg id="Layer_1" data-name="Layer 1" xmlns="http://www.w3.org/2000/svg" viewBox="0 0 512 512"><defs><style>.cls-1{fill:#7883b1;}.cls-2{fill:#f5333f;}.cls-3{fill:#1a3f81;}.cls-4{fill:#b4b8d3;}.cls-5{fill:#475b95;}</style></defs><title>AH-BoatLogo for Application-F</title><path class="cls-1" d="M262.57,170.82V221.3l134.26,29.83a10.32,10.32,0,0,0,2.27.25,10.49,10.49,0,0,0,10.5-10.5V170.82Z"/><path class="cls-2" d="M249.44,170.82h-147V234c0,10.09,1.45,13.09,3.93,15.09a10.63,10.63,0,0,0,8.84,2.06L249.44,221.3Z"/><path class="cls-3" d="M165.42,87.79H112.9a10.51,10.51,0,0,0-10.5,10.5v59.4h147V87.79Z"/><path class="cls-4" d="M471.8,467.94c-42.67,13.25-47.18-32.29-78.05-25.84a42.06,42.06,0,0,0-8.83,3,60.31,60.31,0,0,0-6,3.2c-10.7,6.42-19.36,14.9-32.36,14.9-22.55,0-30.53-19.71-49.95-27.53-21.52-7.82-40.6,17.8-61.24,19.53-21.88,1.84-35.21-22.59-59.15-17.83-17.53,3.32-26.08,16.8-39.71,24.62-.53.3-1.07.58-1.61.86a41.79,41.79,0,0,1-8.65,3.41c-30.18,7.14-40.93-40.79-79.45-14.62-2.42,2.05-4.85,4.76-7.28,6.81v1.69c3.12-.68,13.18-8.5,20.82-9.52,23.58-5.44,35.73,22.1,55.85,27.54,13.2,3.81,23.18-2.08,32.39-8.64,9.68-6.9,18.53-14.53,29.37-12.44,12.16,2.19,19.33,7.21,26.07,11.9,7.89,5.48,15.19,10.5,29.19,10,10.74-.36,21.62-5.77,32.41-10.87,6.92-3.27,13.8-6.41,20.58-8,9.62-2.4,17.29,1.93,25.09,7.32,9.91,6.85,20,15.42,34.58,14.09,11.25-1.33,18.92-8.29,26.89-15.06,6.29-5.34,12.77-10.56,21.34-12.8,30.18-8.51,40.93,37,78.4,15.29Z"/><path class="cls-5" d="M253.86,238,77.34,277.24a9.81,9.81,0,0,0-7,13.22l58.76,146.88c.69,1.73,3.2,7.77,5.77,12.63.54-.29,1.08-.57,1.61-.87,13.63-7.82,22.18-21.29,39.71-24.62,23.94-4.76,37.27,19.67,59.15,17.84,7-.59,13.84-3.93,20.64-7.79V237.78A9.61,9.61,0,0,0,253.86,238Z"/><path class="cls-3" d="M441.19,282.24a9.84,9.84,0,0,0-6.55-5L258.12,238a9.43,9.43,0,0,0-2.12-.23V434.53c13.24-7.49,26.39-16.91,40.6-11.74,19.42,7.81,27.4,27.53,49.95,27.53,13,0,21.66-8.48,32.36-14.9a60.31,60.31,0,0,1,6-3.2l56.71-141.76A9.73,9.73,0,0,0,441.19,282.24Z"/><path class="cls-4" d="M285.81,57.45a6.37,6.37,0,0,0-1.21,12.69,65.14,65.14,0,0,1,58.58,70.93,6.37,6.37,0,1,0,12.69,1.21,77.87,77.87,0,0,0-70.06-84.83Zm0,0"/><path class="cls-4" d="M288.39,30.36a6.38,6.38,0,0,0-1.21,12.7c52.36,5,88.08,48.24,83.08,100.6a6.38,6.38,0,0,0,12.7,1.21c5.71-59.82-34.88-108.82-94.57-114.51Zm0,0"/><path class="cls-4" d="M283.23,84.53A6.38,6.38,0,1,0,282,97.23a37.88,37.88,0,0,1,34.07,41.26,6.38,6.38,0,0,0,12.7,1.21,50.65,50.65,0,0,0-45.56-55.17Zm0,0"/><circle class="cls-3" cx="283.23" cy="131.28" r="14.19"/></svg>