<svg id="Layer_1" data-name="Layer 1" xmlns="http://www.w3.org/2000/svg" viewBox="0 0 835 880"><defs><style>.cls-1{fill:#7883b1;}.cls-2{fill:#f5333f;}.cls-3{fill:#1a3f81;}.cls-4{fill:#b4b8d3;}.cls-5{fill:#475b95;}</style></defs><title>AH-BoatLogo for Application-F</title><path class="cls-1" d="M428.67,295.17V381L657,431.72a18.11,18.11,0,0,0,3.86.42,17.82,17.82,0,0,0,17.85-17.85V295.17Z"/><path class="cls-2" d="M406.34,295.17h-250v107.4c0,17.14,2.47,22.25,6.68,25.65a18.06,18.06,0,0,0,15,3.5L406.34,381Z"/><path class="cls-3" d="M263.48,154H174.19a17.86,17.86,0,0,0-17.86,17.86v101h250V154Z"/><path class="cls-4" d="M784.43,800.36c-72.55,22.54-80.23-54.9-132.72-43.94a71.72,71.72,0,0,0-15,5.08,103.74,103.74,0,0,0-10.23,5.44c-18.18,10.91-32.92,25.33-55,25.33-38.34,0-51.91-33.52-84.94-46.81-36.59-13.3-69,30.26-104.12,33.21-37.2,3.12-59.88-38.42-100.58-30.32C252,754,237.49,776.91,214.31,790.21c-.9.51-1.82,1-2.74,1.47a70.34,70.34,0,0,1-14.7,5.79c-51.31,12.14-69.6-69.36-135.09-24.85-4.12,3.48-8.26,8.09-12.38,11.58v2.86c5.3-1.15,22.41-14.44,35.39-16.18,40.11-9.24,60.77,37.58,95,46.83,22.44,6.48,39.41-3.54,55.08-14.7,16.46-11.72,31.49-24.7,49.93-21.15,20.68,3.74,32.87,12.27,44.34,20.24,13.4,9.31,25.81,17.85,49.62,17,18.26-.61,36.76-9.81,55.1-18.48,11.77-5.56,23.47-10.89,35-13.61,16.36-4.07,29.41,3.29,42.66,12.46,16.85,11.65,34,26.22,58.8,24,19.13-2.26,32.17-14.09,45.73-25.6,10.69-9.08,21.7-18,36.27-21.77,51.33-14.46,69.6,63,133.31,26Z"/><path class="cls-5" d="M413.87,409.41l-300.15,66.7a16.7,16.7,0,0,0-11.87,22.48l99.92,249.75c1.17,2.94,5.43,13.22,9.8,21.47.92-.49,1.84-1,2.74-1.47,23.18-13.3,37.71-36.21,67.52-41.86,40.7-8.1,63.38,33.44,100.58,30.32,11.92-1,23.52-6.69,35.09-13.24V409A17,17,0,0,0,413.87,409.41Z"/><path class="cls-3" d="M732.39,484.62a16.75,16.75,0,0,0-11.14-8.51l-300.14-66.7a16.85,16.85,0,0,0-3.61-.4V743.56c22.51-12.74,44.86-28.76,69-20,33,13.29,46.6,46.81,84.94,46.81,22.09,0,36.83-14.42,55-25.33a103.74,103.74,0,0,1,10.23-5.44l96.41-241A16.5,16.5,0,0,0,732.39,484.62Z"/><path class="cls-4" d="M468.19,102.39A10.84,10.84,0,1,0,466.13,124a110.73,110.73,0,0,1,99.6,120.61,10.84,10.84,0,1,0,21.58,2C594.24,174,540.8,109.32,468.19,102.39Zm0,0"/><path class="cls-4" d="M472.58,56.34a10.84,10.84,0,0,0-2.06,21.59c89,8.49,149.76,82,141.26,171A10.84,10.84,0,0,0,633.37,251c9.71-101.71-59.3-185-160.79-194.7Zm0,0"/><path class="cls-4" d="M463.79,148.45A10.84,10.84,0,0,0,461.73,170a64.41,64.41,0,0,1,57.94,70.15,10.84,10.84,0,1,0,21.59,2.06,86.11,86.11,0,0,0-77.47-93.8Zm0,0"/><circle class="cls-3" cx="463.79" cy="227.94" r="24.12"/></svg>