<svg id="Layer_1" data-name="Layer 1" xmlns="http://www.w3.org/2000/svg" viewBox="0 0 200 150"><defs><style>.cls-1{fill:#7883b1;}.cls-2{fill:#f5333f;}.cls-3{fill:#1a3f81;}.cls-4{fill:#b4b8d3;}.cls-5{fill:#475b95;}</style></defs><title>AH-BoatLogo for Application-F</title><path class="cls-1" d="M101.9,50.29V64.93l38.95,8.66a3,3,0,0,0,.66.07,3,3,0,0,0,1.91-.67,3.08,3.08,0,0,0,1.14-2.38V50.29Z"/><path class="cls-2" d="M98.1,50.29H55.45V68.61c0,2.93.42,3.8,1.14,4.38a3.08,3.08,0,0,0,2.56.6L98.1,64.93Z"/><path class="cls-3" d="M73.73,26.21H58.49a3,3,0,0,0-3,3V46.48H98.1V26.21Z"/><path class="cls-4" d="M162.6,136.48c-12.38,3.84-13.69-9.37-22.64-7.5a11.86,11.86,0,0,0-2.56.87,19.31,19.31,0,0,0-1.75.92c-3.1,1.87-5.61,4.33-9.38,4.33-6.54,0-8.86-5.72-14.49-8-6.25-2.27-11.78,5.16-17.77,5.67-6.34.53-10.21-6.56-17.16-5.18-5.08,1-7.56,4.88-11.51,7.14l-.47.25a11.42,11.42,0,0,1-2.51,1c-8.75,2.07-11.87-11.83-23-4.24-.71.6-1.41,1.38-2.12,2v.49c.91-.2,3.83-2.47,6-2.76,6.84-1.58,10.37,6.41,16.2,8,3.83,1.1,6.73-.61,9.4-2.51s5.37-4.22,8.52-3.61a17.74,17.74,0,0,1,7.56,3.45c2.29,1.59,4.41,3,8.47,2.91,3.11-.1,6.27-1.67,9.4-3.15a30.74,30.74,0,0,1,6-2.32c2.79-.7,5,.56,7.27,2.12,2.88,2,5.81,4.48,10,4.09,3.26-.39,5.48-2.41,7.8-4.37a15.79,15.79,0,0,1,6.18-3.71c8.76-2.47,11.88,10.74,22.75,4.43Z"/><path class="cls-5" d="M99.38,69.78,48.18,81.16a2.85,2.85,0,0,0-2,3.84L63.2,127.6c.2.5.92,2.26,1.67,3.66l.47-.25c4-2.27,6.43-6.17,11.51-7.14,7-1.38,10.82,5.71,17.16,5.17a15.24,15.24,0,0,0,6-2.25V69.71A3.18,3.18,0,0,0,99.38,69.78Z"/><path class="cls-3" d="M153.72,82.61a2.85,2.85,0,0,0-1.9-1.45l-51.2-11.38a3.27,3.27,0,0,0-.62-.07v57.08c3.84-2.18,7.65-4.91,11.78-3.41,5.63,2.27,8,8,14.49,8,3.77,0,6.28-2.45,9.38-4.32a17.07,17.07,0,0,1,1.75-.92L153.84,85A2.82,2.82,0,0,0,153.72,82.61Z"/><path class="cls-4" d="M108.65,17.41a1.85,1.85,0,1,0-.35,3.68,18.9,18.9,0,0,1,17,20.57A1.85,1.85,0,1,0,129,42a22.59,22.59,0,0,0-20.32-24.6Zm0,0"/><path class="cls-4" d="M109.4,9.55a1.85,1.85,0,1,0-.35,3.68c15.18,1.45,25.54,14,24.09,29.18a1.85,1.85,0,0,0,3.69.35c1.65-17.35-10.12-31.56-27.43-33.21Zm0,0"/><path class="cls-4" d="M107.9,25.26a1.85,1.85,0,1,0-.35,3.69,11,11,0,0,1,9.88,12,1.85,1.85,0,0,0,3.68.36,14.7,14.7,0,0,0-13.21-16Zm0,0"/><circle class="cls-3" cx="107.9" cy="38.82" r="4.12"/></svg>