<svg id="Layer_1" data-name="Layer 1" xmlns="http://www.w3.org/2000/svg" viewBox="0 0 299.97 96.78"><defs><style>.cls-1{font-size:14px;fill:#6796b6;font-family:Agenda-Regular, Agenda;letter-spacing:0.05em;}.cls-2{letter-spacing:0.06em;}.cls-3{fill:#fff;}.cls-4{fill:#4c7d9d;}.cls-5{fill:#009ee0;}.cls-6{fill:#97bf0d;}.cls-7{fill:#4977b6;}</style></defs><title>VoyagerVoice-HORZÔÇôlogoREV-master-CMYK</title><text class="cls-1" transform="translate(50.73 70.5)">V<tspan class="cls-2" x="8.82" y="0">OICE</tspan></text><path class="cls-3" d="M312,293.23a10.45,10.45,0,1,1,10.56-10.42A10.22,10.22,0,0,1,312,293.23Zm0-17.37a6.94,6.94,0,1,0,6.51,6.95A6.61,6.61,0,0,0,312,275.86Z" transform="translate(-278.56 -246.78)"/><path class="cls-3" d="M376.6,289.49l-5.45-1.89a.84.84,0,0,1-.58-.7c0-.88,1-1.1,2.55-1.1,4.67,0,7.44-3.17,7.44-6.73a6.18,6.18,0,0,0-.7-3,5.37,5.37,0,0,0,2-.53l-.65-2.87a.32.32,0,0,0-.33-.29l-.15,0a6.81,6.81,0,0,1-2.56.53,10.88,10.88,0,0,1-2.55-.26,9,9,0,0,0-2.47-.31c-4.39,0-7.47,2.81-7.47,6.73a6.57,6.57,0,0,0,3,5.41c-1.11.57-2.49,2.18-2.25,3.26s2,2,2,2a6.34,6.34,0,0,0-4.13,6c0,4.13,3.61,7.17,9.06,7.17s8.89-2.82,8.89-6.6S380.12,290.73,376.6,289.49Zm-3.48-13.85a3.6,3.6,0,0,1,3.79,3.43,3.67,3.67,0,0,1-3.79,3.43,3.59,3.59,0,0,1-3.82-3.43A3.65,3.65,0,0,1,373.12,275.64Zm.09,24.06c-3.6,0-5.41-2-5.41-4a3.87,3.87,0,0,1,4.14-3.87l3.47,1c2.07.62,3.08,1.85,3.08,3.39S376.73,299.7,373.21,299.7Z" transform="translate(-278.56 -246.78)"/><path class="cls-3" d="M394.46,272.34a10.09,10.09,0,0,0-9.9,10.47,10.42,10.42,0,0,0,10.69,10.42,12.15,12.15,0,0,0,5.89-1.27l.81-3.44a.31.31,0,0,0-.32-.41.59.59,0,0,0-.19.06,10.4,10.4,0,0,1-5.66,1.54,6.73,6.73,0,0,1-7.08-5.93h12c1.46,0,2.14-1.76,2.25-2.25a7.43,7.43,0,0,0,.13-1.63C403.08,276.21,400,272.34,394.46,272.34Zm4.73,8.18H389a6.06,6.06,0,0,1,5.72-4.75,4.55,4.55,0,0,1,4.55,4.22A2.32,2.32,0,0,1,399.19,280.52Z" transform="translate(-278.56 -246.78)"/><path class="cls-3" d="M419.32,272.29c-3,0-6.89,1-7.95,3.51,0,0-.16-2.78-.16-2.81,0-.21-.12-.31-.28-.32h-3.26a.3.3,0,0,0-.28.31v19.68h4v-9.44c0-5.69,5-7.53,8.23-7.53h.19c.15,0,.22-.06.17-.3Z" transform="translate(-278.56 -246.78)"/><path class="cls-3" d="M361.67,290.54a2.86,2.86,0,0,1-1.74-2.94v-8.05c0-4.7-3.21-7.21-7.65-7.21a11.86,11.86,0,0,0-6.51,1.71l.68,2.84a.33.33,0,0,0,.33.27,1,1,0,0,0,.25-.09,10.25,10.25,0,0,1,5-1.3c2.81,0,3.87,1.45,3.87,3.26v1.27l-4.67.44c-3.38.31-6.55,2.51-6.55,6.38a6.12,6.12,0,0,0,6.42,6.11,6.68,6.68,0,0,0,5.59-2.55,4.07,4.07,0,0,0,2.9,2.55l2.14-2.15C362,290.78,361.86,290.59,361.67,290.54Zm-5.74-5.18a4.83,4.83,0,0,1-4.62,4.48,2.73,2.73,0,0,1-2.77-2.68c0-1.45,1-3,3.43-3.21l4-.35Z" transform="translate(-278.56 -246.78)"/><path class="cls-3" d="M339.4,272.82a.49.49,0,0,0-.45.31L335.33,282c-.52,1.32-1.14,2.81-1.67,4.35h-.09c-.57-1.63-1.18-3.21-1.71-4.48l-3.57-8.74a.47.47,0,0,0-.42-.33H324L331.46,291c-2.22,5.46-3.52,7.3-6.81,8.65a.32.32,0,0,0-.12.55l2.06,2.1c3.92-1.76,6-4.13,9-11.48l7.35-18Z" transform="translate(-278.56 -246.78)"/><path class="cls-3" d="M302.22,264.69h-3.66a.55.55,0,0,0-.52.36l-5.06,13c-.79,2-1.58,4.35-2.33,6.68h-.09c-.74-2.37-1.58-4.75-2.33-6.68l-5.06-13a.56.56,0,0,0-.51-.34h-4.1l11,28.14a.44.44,0,0,0,.4.31h.83a.4.4,0,0,0,.37-.28h0Z" transform="translate(-278.56 -246.78)"/><path class="cls-4" d="M501.69,336.89c-.73.21-1.38-.37-1.46-1.25a1.71,1.71,0,0,1,1.12-1.88c.71-.19,1.35.35,1.45,1.22A1.7,1.7,0,0,1,501.69,336.89Z" transform="translate(-278.56 -246.78)"/><path class="cls-5" d="M477.52,303.71c-1.49-.77-1.62-2.47-.35-3.78a4.45,4.45,0,0,1,4.81-1c1.47.7,1.73,2.36.52,3.69A4.41,4.41,0,0,1,477.52,303.71Z" transform="translate(-278.56 -246.78)"/><path class="cls-4" d="M470.23,302.66c-1.75,1.15-3.94,1.13-4.85-.06s-.17-3,1.55-4,3.74-1,4.66,0S471.94,301.53,470.23,302.66Z" transform="translate(-278.56 -246.78)"/><path class="cls-4" d="M454.59,293.64a1.29,1.29,0,0,1-.59,1.82,1.51,1.51,0,0,1-2-.46,1.28,1.28,0,0,1,.62-1.79A1.5,1.5,0,0,1,454.59,293.64Z" transform="translate(-278.56 -246.78)"/><path class="cls-6" d="M502.77,297.13c-1.66.75-3.64.32-4.35-1s.06-2.79,1.67-3.5a3.51,3.51,0,0,1,4.23.89C505.1,294.77,504.42,296.38,502.77,297.13Z" transform="translate(-278.56 -246.78)"/><path class="cls-4" d="M509.4,291.32a3.37,3.37,0,0,1-4.07-.82c-.74-1.08-.13-2.43,1.31-3.05a3.47,3.47,0,0,1,4,.78C511.4,289.3,510.88,290.67,509.4,291.32Z" transform="translate(-278.56 -246.78)"/><path class="cls-4" d="M503.3,286.32c-1.63.66-3.56.27-4.3-.86s0-2.46,1.6-3.06a3.74,3.74,0,0,1,4.17.81C505.55,284.28,504.9,285.68,503.3,286.32Z" transform="translate(-278.56 -246.78)"/><path class="cls-6" d="M495.61,291.78c-2,.83-4.22.36-4.93-1s.35-3,2.24-3.77,4-.31,4.75.95S497.56,291,495.61,291.78Z" transform="translate(-278.56 -246.78)"/><path class="cls-5" d="M484.09,295.21c-1.89.78-3.87.34-4.36-1s.64-2.86,2.48-3.57,3.66-.29,4.22.89S486,294.45,484.09,295.21Z" transform="translate(-278.56 -246.78)"/><path class="cls-4" d="M474.76,294.25c-1.76,1-3.78.83-4.47-.24s.18-2.63,1.88-3.5,3.58-.76,4.31.23S476.47,293.32,474.76,294.25Z" transform="translate(-278.56 -246.78)"/><path class="cls-4" d="M465.38,292.69c-1.46.66-3,.29-3.5-.82s.34-2.42,1.75-3,2.88-.26,3.38.76S466.8,292,465.38,292.69Z" transform="translate(-278.56 -246.78)"/><path class="cls-4" d="M458.86,289.29c-1.24.43-2.35,0-2.48-.88a2.61,2.61,0,0,1,2-2.33c1.19-.4,2.27,0,2.44.83S460.1,288.86,458.86,289.29Z" transform="translate(-278.56 -246.78)"/><path class="cls-6" d="M453.93,284.89c-.95.31-1.77,0-1.82-.73s.64-1.48,1.56-1.77,1.72,0,1.8.7S454.88,284.59,453.93,284.89Z" transform="translate(-278.56 -246.78)"/><path class="cls-6" d="M491.07,285.23c-2,.18-3.54-.81-3.36-2.16s1.87-2.51,3.77-2.67,3.4.73,3.33,2S493.08,285,491.07,285.23Z" transform="translate(-278.56 -246.78)"/><path class="cls-4" d="M464.66,284.48c-1.63.15-2.57-.62-2.09-1.69a4.65,4.65,0,0,1,3.63-2.09c1.55-.13,2.49.58,2.11,1.61S466.28,284.34,464.66,284.48Z" transform="translate(-278.56 -246.78)"/><path class="cls-4" d="M457.19,272.6c-.89.1-1.31-.45-.94-1.21a3.11,3.11,0,0,1,2.21-1.53c.85-.09,1.28.42.94,1.17A3,3,0,0,1,457.19,272.6Z" transform="translate(-278.56 -246.78)"/><path class="cls-6" d="M481.28,280.16c-1.51-.31-2-1.44-1.06-2.5a4.88,4.88,0,0,1,4.24-1.34c1.47.28,2,1.35,1.18,2.41A4.84,4.84,0,0,1,481.28,280.16Z" transform="translate(-278.56 -246.78)"/><path class="cls-6" d="M467.24,276.56c-.62-.62-.07-1.6,1.21-2.19s2.76-.57,3.4,0,.16,1.57-1.1,2.18S467.86,277.18,467.24,276.56Z" transform="translate(-278.56 -246.78)"/><path class="cls-6" d="M465.38,274c-1.2.26-2.13-.17-2.1-.94s1-1.54,2.18-1.78,2.09.16,2.1.89S466.59,273.77,465.38,274Z" transform="translate(-278.56 -246.78)"/><path class="cls-4" d="M463.62,270.14c-.95.06-1.38-.48-1-1.2a3.2,3.2,0,0,1,2.34-1.38c.9-.06,1.34.45,1,1.15A3.12,3.12,0,0,1,463.62,270.14Z" transform="translate(-278.56 -246.78)"/><path class="cls-6" d="M462.31,266.73c-.68,0-.85-.5-.38-1.15a3,3,0,0,1,2-1.18c.66,0,.84.47.42,1.11A3,3,0,0,1,462.31,266.73Z" transform="translate(-278.56 -246.78)"/><path class="cls-6" d="M465.58,263c-.46,0-.51-.38-.11-.77a2.45,2.45,0,0,1,1.54-.64c.46,0,.52.36.13.75A2.38,2.38,0,0,1,465.58,263Z" transform="translate(-278.56 -246.78)"/><path class="cls-6" d="M509.34,279.51c-1.64.63-3.68.27-4.51-.79s-.14-2.31,1.45-2.89a4.34,4.34,0,0,1,4.35.72C511.5,277.58,510.94,278.88,509.34,279.51Z" transform="translate(-278.56 -246.78)"/><path class="cls-5" d="M496,273.83c-1.59.54-3.39.23-4-.66s.23-2,1.76-2.45,3.25-.21,3.88.61S497.53,273.3,496,273.83Z" transform="translate(-278.56 -246.78)"/><path class="cls-4" d="M489.49,266a2.26,2.26,0,0,1-2.3-.35c-.3-.46.22-1,1.16-1.3a2.33,2.33,0,0,1,2.26.33C490.94,265.18,490.45,265.77,489.49,266Z" transform="translate(-278.56 -246.78)"/><path class="cls-4" d="M482.31,255.18a2.41,2.41,0,0,1-1.58.38c-.4-.09-.35-.4.13-.69a2.49,2.49,0,0,1,1.54-.37C482.8,254.59,482.76,254.9,482.31,255.18Z" transform="translate(-278.56 -246.78)"/><path class="cls-4" d="M492.69,278.44c-1.38.48-2.89.2-3.37-.6s.27-1.8,1.61-2.24,2.78-.19,3.27.57S494.06,278,492.69,278.44Z" transform="translate(-278.56 -246.78)"/><path class="cls-4" d="M490.83,270.48c-1.48.46-3.1.2-3.59-.58s.33-1.71,1.78-2.14,3-.18,3.5.54S492.31,270,490.83,270.48Z" transform="translate(-278.56 -246.78)"/><path class="cls-4" d="M486.12,275.06c-1.73.56-3.55.24-4-.7s.53-2.07,2.19-2.58,3.38-.22,3.91.66S487.82,274.51,486.12,275.06Z" transform="translate(-278.56 -246.78)"/><path class="cls-4" d="M478.13,273.08c-1.5.46-3,.2-3.32-.57s.63-1.7,2.07-2.12,2.88-.18,3.25.54S479.62,272.63,478.13,273.08Z" transform="translate(-278.56 -246.78)"/><path class="cls-4" d="M472.21,270.83c-1.38.39-2.71.16-2.94-.5s.69-1.49,2-1.85,2.61-.16,2.87.47S473.58,270.43,472.21,270.83Z" transform="translate(-278.56 -246.78)"/><path class="cls-5" d="M471.91,266.06a3,3,0,0,1-2.45,1.34c-1.06.07-1.66-.43-1.34-1.09a3.12,3.12,0,0,1,2.45-1.29C471.59,265,472.19,265.42,471.91,266.06Z" transform="translate(-278.56 -246.78)"/><path class="cls-4" d="M471.61,263.26a3.14,3.14,0,0,1-2.34,1.13c-.88,0-1.25-.48-.83-1.09a3.13,3.13,0,0,1,2.3-1.08C471.59,262.21,472,262.67,471.61,263.26Z" transform="translate(-278.56 -246.78)"/><path class="cls-4" d="M472.56,260.52a2.82,2.82,0,0,1-1.86.58c-.57-.08-.64-.45-.18-.83a2.73,2.73,0,0,1,1.84-.56C472.91,259.77,473,260.13,472.56,260.52Z" transform="translate(-278.56 -246.78)"/><path class="cls-4" d="M474.12,258a3.69,3.69,0,0,1-2.17.56c-.43-.13-.15-.58.61-1a3.68,3.68,0,0,1,2.12-.53C475.11,257.14,474.87,257.56,474.12,258Z" transform="translate(-278.56 -246.78)"/><path class="cls-4" d="M484,269.41c-1.48.44-3,.19-3.41-.55s.49-1.61,1.92-2,2.89-.17,3.31.52S485.42,269,484,269.41Z" transform="translate(-278.56 -246.78)"/><path class="cls-5" d="M475.54,264.37c-1-.1-1.29-.66-.72-1.25a3.8,3.8,0,0,1,2.72-.89c.95.1,1.29.63.76,1.22A3.69,3.69,0,0,1,475.54,264.37Z" transform="translate(-278.56 -246.78)"/><path class="cls-4" d="M478.93,260.66a4,4,0,0,1-2.8.52c-.79-.22-.77-.79,0-1.27a4,4,0,0,1,2.74-.49C479.64,259.62,479.68,260.17,478.93,260.66Z" transform="translate(-278.56 -246.78)"/><path class="cls-4" d="M479.68,257.82a3.74,3.74,0,0,1-2.49.46c-.62-.18-.49-.68.27-1.11a3.77,3.77,0,0,1,2.44-.44C480.51,256.9,480.42,257.39,479.68,257.82Z" transform="translate(-278.56 -246.78)"/><path class="cls-6" d="M485.49,253.21a3,3,0,0,1-1.91.22c-.41-.16-.22-.52.42-.79a3,3,0,0,1,1.88-.22C486.3,252.57,486.13,252.92,485.49,253.21Z" transform="translate(-278.56 -246.78)"/><path class="cls-4" d="M485.76,264.34c-1.29.36-2.64.15-3-.44s.38-1.32,1.63-1.65,2.56-.14,2.95.42S487,264,485.76,264.34Z" transform="translate(-278.56 -246.78)"/><path class="cls-5" d="M483.66,261.54c-1.09.28-2.24.12-2.54-.36s.36-1.07,1.43-1.34,2.18-.11,2.5.34S484.75,261.26,483.66,261.54Z" transform="translate(-278.56 -246.78)"/><path class="cls-4" d="M489.9,253.83a2.13,2.13,0,0,1-1.82-.22c-.25-.28.15-.65.9-.82a2.25,2.25,0,0,1,1.8.21C491,253.29,490.66,253.66,489.9,253.83Z" transform="translate(-278.56 -246.78)"/><path class="cls-6" d="M486.71,255.32a3,3,0,0,1-2,.41c-.6-.13-.65-.53-.12-.87a3.05,3.05,0,0,1,2-.39C487.15,254.6,487.22,255,486.71,255.32Z" transform="translate(-278.56 -246.78)"/><path class="cls-4" d="M493.39,251.94c-.76.1-1.45,0-1.54-.25s.42-.51,1.15-.61,1.42,0,1.53.24S494.13,251.83,493.39,251.94Z" transform="translate(-278.56 -246.78)"/><path class="cls-5" d="M498.19,269.15c-1.56.5-3.36.22-4-.61s.17-1.81,1.67-2.26,3.2-.19,3.85.57S499.73,268.67,498.19,269.15Z" transform="translate(-278.56 -246.78)"/><path class="cls-4" d="M496.72,265.45c-1.53.45-3.26.2-3.84-.55s.19-1.66,1.67-2.08,3.11-.17,3.73.53S498.22,265,496.72,265.45Z" transform="translate(-278.56 -246.78)"/><path class="cls-5" d="M492.43,262.31c-1.22.33-2.55.14-3-.41s.23-1.24,1.41-1.56a3.2,3.2,0,0,1,2.9.4C494.22,261.27,493.62,262,492.43,262.31Z" transform="translate(-278.56 -246.78)"/><path class="cls-5" d="M490.39,259.7c-1.16.29-2.42.12-2.8-.38s.25-1.12,1.38-1.4a3.07,3.07,0,0,1,2.73.36C492.11,258.76,491.53,259.4,490.39,259.7Z" transform="translate(-278.56 -246.78)"/><path class="cls-6" d="M490.64,256.68a3.46,3.46,0,0,1-2.43.25c-.66-.23-.61-.71.08-1.07a3.47,3.47,0,0,1,2.39-.24C491.33,255.84,491.32,256.31,490.64,256.68Z" transform="translate(-278.56 -246.78)"/><path class="cls-5" d="M494.69,254.9a3.32,3.32,0,0,1-2.77-.33c-.4-.44.17-1,1.25-1.25a3.43,3.43,0,0,1,2.71.32C496.32,254.07,495.79,254.64,494.69,254.9Z" transform="translate(-278.56 -246.78)"/><path class="cls-5" d="M497.12,252.47a2.29,2.29,0,0,1-1.81-.2c-.28-.27.06-.62.76-.77a2.36,2.36,0,0,1,1.78.19C498.15,252,497.82,252.31,497.12,252.47Z" transform="translate(-278.56 -246.78)"/><path class="cls-4" d="M499.61,251c-.81.06-1.5-.12-1.54-.39s.56-.54,1.35-.6,1.48.11,1.54.38S500.42,251,499.61,251Z" transform="translate(-278.56 -246.78)"/><path class="cls-4" d="M498.61,261.53a2.38,2.38,0,0,1-2.16-.29c-.36-.39.05-.89.88-1.11a2.38,2.38,0,0,1,2.12.28C499.83,260.79,499.45,261.3,498.61,261.53Z" transform="translate(-278.56 -246.78)"/><path class="cls-6" d="M495.42,258.45a3,3,0,0,1-2.7-.34c-.4-.47.14-1.05,1.19-1.32a3.17,3.17,0,0,1,2.65.34C497,257.58,496.49,258.18,495.42,258.45Z" transform="translate(-278.56 -246.78)"/><path class="cls-4" d="M498.79,256.24a2.88,2.88,0,0,1-2.39-.29c-.38-.39.06-.88,1-1.1a3,3,0,0,1,2.34.28C500.12,255.51,499.71,256,498.79,256.24Z" transform="translate(-278.56 -246.78)"/><path class="cls-4" d="M503,252.24c-.9.12-1.78-.05-1.95-.37s.38-.68,1.26-.79,1.75,0,1.94.36S503.85,252.12,503,252.24Z" transform="translate(-278.56 -246.78)"/><path class="cls-5" d="M503.42,249.7c-.77.08-1.48,0-1.57-.24s.46-.43,1.21-.51,1.47,0,1.57.23S504.2,249.62,503.42,249.7Z" transform="translate(-278.56 -246.78)"/><path class="cls-4" d="M503.9,263.08c-1.33.39-2.93.17-3.53-.48s0-1.45,1.27-1.81a4,4,0,0,1,3.45.46C505.73,261.87,505.22,262.7,503.9,263.08Z" transform="translate(-278.56 -246.78)"/><path class="cls-4" d="M504.85,256.34a3.43,3.43,0,0,1-2.75-.34c-.48-.44-.05-1,.95-1.24a3.39,3.39,0,0,1,2.69.32C506.25,255.51,505.86,256.07,504.85,256.34Z" transform="translate(-278.56 -246.78)"/><path class="cls-4" d="M506.64,253.71a3.07,3.07,0,0,1-2.31-.27c-.42-.35-.07-.79.76-1a3.1,3.1,0,0,1,2.26.26C507.8,253.05,507.48,253.49,506.64,253.71Z" transform="translate(-278.56 -246.78)"/><path class="cls-4" d="M509.31,252a3.14,3.14,0,0,1-2.23-.25c-.43-.32-.12-.73.66-.92a3.16,3.16,0,0,1,2.21.24C510.39,251.39,510.11,251.81,509.31,252Z" transform="translate(-278.56 -246.78)"/><path class="cls-4" d="M506.26,250.53c-.64,0-1.21-.12-1.26-.36s.41-.46,1-.49,1.19.12,1.26.35S506.91,250.49,506.26,250.53Z" transform="translate(-278.56 -246.78)"/><path class="cls-6" d="M517,249.5c-.66,0-1.18-.19-1.16-.36s.57-.28,1.23-.26,1.17.18,1.16.35S517.7,249.52,517,249.5Z" transform="translate(-278.56 -246.78)"/><path class="cls-6" d="M508,260a4.24,4.24,0,0,1-3.6-.47c-.66-.61-.13-1.38,1.16-1.72a4.34,4.34,0,0,1,3.51.43C509.71,258.85,509.25,259.65,508,260Z" transform="translate(-278.56 -246.78)"/><path class="cls-4" d="M509.7,256.63a3.09,3.09,0,0,1-2.46-.31c-.47-.38-.13-.88.73-1.11a3.11,3.11,0,0,1,2.41.29C510.88,255.94,510.57,256.38,509.7,256.63Z" transform="translate(-278.56 -246.78)"/><path class="cls-4" d="M516.82,254a3.28,3.28,0,0,1-2.38-.27c-.5-.41-.25-.8.54-1a3.38,3.38,0,0,1,2.33.25C517.83,253.29,517.61,253.74,516.82,254Z" transform="translate(-278.56 -246.78)"/><path class="cls-6" d="M518.32,251.12c-.88-.06-1.51-.37-1.4-.67s.9-.48,1.76-.42,1.51.37,1.42.66S519.21,251.19,518.32,251.12Z" transform="translate(-278.56 -246.78)"/><path class="cls-4" d="M523.05,250.69c-.88-.09-1.51-.39-1.39-.66s.89-.42,1.75-.33,1.5.37,1.41.64S523.93,250.77,523.05,250.69Z" transform="translate(-278.56 -246.78)"/><path class="cls-4" d="M521,252.91a2.46,2.46,0,0,1-1.72-.18c-.38-.25-.24-.57.32-.71a2.5,2.5,0,0,1,1.69.18C521.67,252.44,521.54,252.77,521,252.91Z" transform="translate(-278.56 -246.78)"/><path class="cls-5" d="M525.44,253.46a3.56,3.56,0,0,1,2.42.31c.58.37.41.84-.38,1a3.47,3.47,0,0,1-2.47-.32C524.46,254.11,524.66,253.65,525.44,253.46Z" transform="translate(-278.56 -246.78)"/><path class="cls-4" d="M525.14,251.62c.9.11,1.54.45,1.41.76s-1,.49-1.9.37-1.54-.46-1.39-.77S524.24,251.51,525.14,251.62Z" transform="translate(-278.56 -246.78)"/><path class="cls-6" d="M520.22,253.77a4.22,4.22,0,0,1,3,.39c.67.46.4,1.05-.62,1.31a4.22,4.22,0,0,1-3.05-.4C518.9,254.59,519.22,254,520.22,253.77Z" transform="translate(-278.56 -246.78)"/><path class="cls-4" d="M511.29,256.93a2.78,2.78,0,0,1,2.51.36c.49.45.16,1.1-.75,1.15a4.17,4.17,0,0,1-2.56-.29C510,257.71,510.39,257.19,511.29,256.93Z" transform="translate(-278.56 -246.78)"/><path class="cls-6" d="M514.58,259.14a4.77,4.77,0,0,1,4.17.5c.9.74.43,1.69-1.06,2.11a5,5,0,0,1-4.31-.67C512.55,260.22,513.11,259.42,514.58,259.14Z" transform="translate(-278.56 -246.78)"/><path class="cls-6" d="M518.86,256.63a4.32,4.32,0,0,1,3.24.45c.72.54.41,1.23-.71,1.52a4.21,4.21,0,0,1-3.32-.47C517.38,257.58,517.75,256.91,518.86,256.63Z" transform="translate(-278.56 -246.78)"/><path class="cls-4" d="M524,256.38a3.56,3.56,0,0,1,2.56.35c.6.42.4.95-.44,1.18a3.47,3.47,0,0,1-2.61-.37C523,257.12,523.21,256.61,524,256.38Z" transform="translate(-278.56 -246.78)"/><path class="cls-5" d="M529.15,255.4a3.69,3.69,0,0,1,2.55.33c.63.4.49.91-.32,1.13a3.6,3.6,0,0,1-2.6-.35C528.17,256.1,528.34,255.61,529.15,255.4Z" transform="translate(-278.56 -246.78)"/><path class="cls-4" d="M533.77,255.93a3.37,3.37,0,0,1,2.49-.05c.9.3,1.24.83.74,1.17a3.28,3.28,0,0,1-2.55.06C533.55,256.8,533.26,256.27,533.77,255.93Z" transform="translate(-278.56 -246.78)"/><path class="cls-4" d="M539.94,256.87a3.64,3.64,0,0,1,2.43.43c.73.43.82.93.18,1.12a3.64,3.64,0,0,1-2.49-.45C539.35,257.54,539.3,257.05,539.94,256.87Z" transform="translate(-278.56 -246.78)"/><path class="cls-4" d="M552.09,260.34a2.12,2.12,0,0,1,1.4.6c.39.37.38.71,0,.74a2.15,2.15,0,0,1-1.41-.62C551.66,260.69,551.69,260.37,552.09,260.34Z" transform="translate(-278.56 -246.78)"/><path class="cls-5" d="M522.6,259.55c1.25-.05,2.48.41,2.73,1.05s-.57,1.24-1.87,1.3-2.55-.44-2.77-1.1S521.34,259.6,522.6,259.55Z" transform="translate(-278.56 -246.78)"/><path class="cls-4" d="M527.62,258.75a2.68,2.68,0,0,1,2.35.85c.26.52-.39,1-1.46,1s-2.13-.36-2.36-.89S526.6,258.79,527.62,258.75Z" transform="translate(-278.56 -246.78)"/><path class="cls-4" d="M540.4,259.47a2.23,2.23,0,0,1,1.73.58c.27.36-.1.68-.82.71a2.15,2.15,0,0,1-1.74-.6C539.32,259.81,539.7,259.49,540.4,259.47Z" transform="translate(-278.56 -246.78)"/><path class="cls-4" d="M550.86,262.49a3.48,3.48,0,0,1,2.48,1c.52.61.23,1.14-.66,1.18a3.39,3.39,0,0,1-2.51-1C549.69,263,550,262.53,550.86,262.49Z" transform="translate(-278.56 -246.78)"/><path class="cls-6" d="M536.12,260.83c1.38.2,2.42.92,2.3,1.59s-1.4,1.08-2.84.85-2.44-1-2.26-1.64S534.75,260.61,536.12,260.83Z" transform="translate(-278.56 -246.78)"/><path class="cls-5" d="M542.75,262.26c1.47.22,2.66,1,2.62,1.72s-1.35,1.17-2.89.92-2.7-1-2.58-1.78S541.27,262,542.75,262.26Z" transform="translate(-278.56 -246.78)"/><path class="cls-6" d="M549.19,264.74c1.36.21,2.48.93,2.51,1.61s-1.09,1.09-2.5.86-2.5-1-2.48-1.66S547.85,264.53,549.19,264.74Z" transform="translate(-278.56 -246.78)"/><path class="cls-6" d="M555.62,268.2c1.25.2,2.35.93,2.44,1.63s-.89,1.11-2.2.9-2.37-1-2.4-1.67S554.38,268,555.62,268.2Z" transform="translate(-278.56 -246.78)"/><path class="cls-6" d="M562.09,271.84a2.62,2.62,0,0,1,2.11,1.72c.16.79-.57,1.29-1.6,1.11a2.54,2.54,0,0,1-2.11-1.77C560.38,272.14,561.08,271.67,562.09,271.84Z" transform="translate(-278.56 -246.78)"/><path class="cls-6" d="M567.21,277.19a2.31,2.31,0,0,1,1.79,1.4c.2.67-.3,1.13-1.1,1a2.25,2.25,0,0,1-1.79-1.43C566,277.52,566.44,277.09,567.21,277.19Z" transform="translate(-278.56 -246.78)"/><path class="cls-5" d="M520,262.41a4.48,4.48,0,0,1,3.67.57c.83.69.51,1.56-.76,1.94a4.39,4.39,0,0,1-3.79-.6C518.3,263.61,518.71,262.77,520,262.41Z" transform="translate(-278.56 -246.78)"/><path class="cls-6" d="M526.23,264.47a4.17,4.17,0,0,1,3.47.54c.84.66.62,1.5-.53,1.86a4.2,4.2,0,0,1-3.57-.57C524.81,265.62,525.1,264.8,526.23,264.47Z" transform="translate(-278.56 -246.78)"/><path class="cls-4" d="M559.32,292.46a3.37,3.37,0,0,1,3.89-.07c1.28.83,1.59,2.22.68,3.11a3.31,3.31,0,0,1-4,.09C558.61,294.72,558.38,293.33,559.32,292.46Z" transform="translate(-278.56 -246.78)"/><path class="cls-4" d="M527.8,261.52a4.25,4.25,0,0,1,3.31.49c.81.6.62,1.35-.45,1.68a4.15,4.15,0,0,1-3.4-.52C526.49,262.57,526.74,261.83,527.8,261.52Z" transform="translate(-278.56 -246.78)"/><path class="cls-6" d="M531.09,267.42a5.7,5.7,0,0,1,4.76.84c1.24,1,1.07,2.2-.44,2.72a5.61,5.61,0,0,1-5-.9C529.3,269.08,529.6,267.89,531.09,267.42Z" transform="translate(-278.56 -246.78)"/><path class="cls-4" d="M535.34,264.58a5.28,5.28,0,0,1,4.1.63c1.09.77,1,1.75-.27,2.17a5.13,5.13,0,0,1-4.23-.67C533.91,265.92,534.1,265,535.34,264.58Z" transform="translate(-278.56 -246.78)"/><path class="cls-4" d="M540.75,268.73a4.47,4.47,0,0,1,3.65.59c1,.72,1,1.63-.09,2a4.43,4.43,0,0,1-3.76-.64C539.59,270,539.69,269.1,540.75,268.73Z" transform="translate(-278.56 -246.78)"/><path class="cls-4" d="M548,269.33a4.29,4.29,0,0,1,3.43.56c1,.66,1,1.5.11,1.87a4.24,4.24,0,0,1-3.51-.58C547.1,270.5,547.09,269.68,548,269.33Z" transform="translate(-278.56 -246.78)"/><path class="cls-5" d="M556.81,273.56a3.35,3.35,0,0,1,2.73,1.81c.24.85-.64,1.41-2,1.23a3.22,3.22,0,0,1-2.73-1.86C554.67,273.92,555.55,273.4,556.81,273.56Z" transform="translate(-278.56 -246.78)"/><path class="cls-5" d="M559.88,278.79c.23-.7,1.39-.93,2.61-.53s2,1.33,1.85,2.06-1.41,1-2.66.56S559.63,279.5,559.88,278.79Z" transform="translate(-278.56 -246.78)"/><path class="cls-4" d="M537.18,271.77a5.29,5.29,0,0,1,4.58.79c1.23.95,1.15,2.17-.23,2.71a5.26,5.26,0,0,1-4.75-.85C535.62,273.44,535.81,272.26,537.18,271.77Z" transform="translate(-278.56 -246.78)"/><path class="cls-4" d="M550,273.49c1.83.52,3.1,1.75,2.78,2.76s-2.14,1.42-4.06.84-3.06-1.83-2.65-2.81S548.15,273,550,273.49Z" transform="translate(-278.56 -246.78)"/><path class="cls-4" d="M552.75,279.76c.62-.71,2.14-.8,3.42-.21s1.9,1.7,1.3,2.45-2.2.87-3.53.23S552.11,280.49,552.75,279.76Z" transform="translate(-278.56 -246.78)"/><path class="cls-5" d="M564.56,284.69a2,2,0,0,1,2.55-.92,1.87,1.87,0,1,1-2.55.92Z" transform="translate(-278.56 -246.78)"/><path class="cls-4" d="M568.66,291.82a1.34,1.34,0,0,1,1.77-.43,1.25,1.25,0,0,1,.72,1.62,1.34,1.34,0,0,1-1.8.45A1.23,1.23,0,0,1,568.66,291.82Z" transform="translate(-278.56 -246.78)"/><path class="cls-6" d="M542.13,277a5.26,5.26,0,0,1,4.71.86c1.31,1,1.31,2.38-.06,3a5.18,5.18,0,0,1-4.88-.92C540.66,278.87,540.79,277.58,542.13,277Z" transform="translate(-278.56 -246.78)"/><path class="cls-4" d="M561.54,299.43a3.6,3.6,0,0,1,4.06.29c1,.9.74,2.27-.57,3.06a3.63,3.63,0,0,1-4.17-.3C559.91,301.54,560.23,300.18,561.54,299.43Z" transform="translate(-278.56 -246.78)"/><path class="cls-4" d="M559.62,308.76a2.06,2.06,0,0,1,2.38.16,1.17,1.17,0,0,1-.35,1.89,2,2,0,0,1-2.42-.17A1.19,1.19,0,0,1,559.62,308.76Z" transform="translate(-278.56 -246.78)"/><path class="cls-4" d="M520.42,266.13a3.5,3.5,0,0,1,3,.5c.67.59.39,1.35-.64,1.69a3.5,3.5,0,0,1-3.1-.53C519.07,267.18,519.4,266.45,520.42,266.13Z" transform="translate(-278.56 -246.78)"/><path class="cls-5" d="M514,267a5.38,5.38,0,0,1,4.71.74c1,.95.41,2.18-1.33,2.73s-4,.19-4.89-.83S512.25,267.47,514,267Z" transform="translate(-278.56 -246.78)"/><path class="cls-4" d="M524.49,268.94a4.54,4.54,0,0,1,4,.67c.95.83.67,1.87-.66,2.32a4.45,4.45,0,0,1-4.11-.72C522.81,270.37,523.17,269.37,524.49,268.94Z" transform="translate(-278.56 -246.78)"/><path class="cls-4" d="M528.19,273.71a5.76,5.76,0,0,1,5.22,1c1.29,1.14,1,2.62-.67,3.27a5.64,5.64,0,0,1-5.44-1C526.1,275.72,526.53,274.3,528.19,273.71Z" transform="translate(-278.56 -246.78)"/><path class="cls-4" d="M533.63,279a4.8,4.8,0,0,1,4.54.87c1.17,1.05,1,2.41-.4,3a4.76,4.76,0,0,1-4.7-.94A1.64,1.64,0,0,1,533.63,279Z" transform="translate(-278.56 -246.78)"/><path class="cls-6" d="M546.41,282.59a4.36,4.36,0,0,1,4.08.8c1.18,1,1.22,2.19.07,2.73a4.34,4.34,0,0,1-4.22-.86C545.22,284.29,545.27,283.09,546.41,282.59Z" transform="translate(-278.56 -246.78)"/><path class="cls-6" d="M548.28,289a4.59,4.59,0,0,1,4.52.95c1.31,1.14,1.38,2.61.11,3.24a4.54,4.54,0,0,1-4.68-1C547,291,547,289.56,548.28,289Z" transform="translate(-278.56 -246.78)"/><path class="cls-4" d="M548.66,296.39a4.55,4.55,0,0,1,4.86.87c1.31,1.24,1.25,2.91-.21,3.7a4.53,4.53,0,0,1-5-.94C547,298.75,547.22,297.14,548.66,296.39Z" transform="translate(-278.56 -246.78)"/><path class="cls-6" d="M547.82,304.75a4.17,4.17,0,0,1,4.79,1.05c1.28,1.43,1.2,3.27-.25,4.14a4.12,4.12,0,0,1-5-1.14C546.16,307.34,546.37,305.53,547.82,304.75Z" transform="translate(-278.56 -246.78)"/><path class="cls-6" d="M543.37,313.48a3.5,3.5,0,0,1,4.31,1.16c1.13,1.43,1,3.26-.31,4.09a3.48,3.48,0,0,1-4.43-1.2C541.85,316.05,542.06,314.24,543.37,313.48Z" transform="translate(-278.56 -246.78)"/><path class="cls-4" d="M525,280a5.08,5.08,0,0,1,5,1c1.2,1.22.86,2.77-.81,3.45a4.94,4.94,0,0,1-5.19-1.09C522.88,282.15,523.35,280.66,525,280Z" transform="translate(-278.56 -246.78)"/><path class="cls-6" d="M518.69,271.48a5.46,5.46,0,0,1,5.06.91c1.15,1.11.68,2.53-1.09,3.16a5.39,5.39,0,0,1-5.29-1C516.34,273.42,517,272.06,518.69,271.48Z" transform="translate(-278.56 -246.78)"/><path class="cls-4" d="M537,285a4.3,4.3,0,0,1,4.27.88c1.13,1.06,1,2.42-.28,3a4.26,4.26,0,0,1-4.41-.94C535.48,286.9,535.69,285.59,537,285Z" transform="translate(-278.56 -246.78)"/><path class="cls-4" d="M538.33,292.18a3.16,3.16,0,0,1,3.35.74c.87.9.8,2-.23,2.53a3.14,3.14,0,0,1-3.43-.78A1.45,1.45,0,0,1,538.33,292.18Z" transform="translate(-278.56 -246.78)"/><path class="cls-4" d="M536.08,298.73a4.43,4.43,0,0,1,4.93,1.38c1.32,1.52,1.23,3.42-.27,4.19s-3.83.13-5.11-1.47S534.62,299.46,536.08,298.73Z" transform="translate(-278.56 -246.78)"/><path class="cls-4" d="M517.35,277.05a4.44,4.44,0,0,1,4.38.85c1,1,.51,2.37-1,3a4.37,4.37,0,0,1-4.54-.89C515.26,278.59,515.83,277.57,517.35,277.05Z" transform="translate(-278.56 -246.78)"/><path class="cls-4" d="M524.89,294a4,4,0,0,1,4.54,1.13,2.27,2.27,0,0,1-.76,3.69,4,4,0,0,1-4.71-1.21A2.27,2.27,0,0,1,524.89,294Z" transform="translate(-278.56 -246.78)"/><path class="cls-4" d="M521.82,300.51a3.33,3.33,0,0,1,3.91,1.11,2.21,2.21,0,0,1-.75,3.44,3.27,3.27,0,0,1-4-1.19A2.22,2.22,0,0,1,521.82,300.51Z" transform="translate(-278.56 -246.78)"/><path class="cls-4" d="M515.06,305.79c2.77-.2,5.15,1.5,5.33,3.73s-2.06,4.31-5,4.46S510,312.14,510,309.8,512.29,305.76,515.06,305.79Z" transform="translate(-278.56 -246.78)"/><path class="cls-4" d="M525.2,315.24c2.24-.18,4.33,1,4.65,2.67s-1.26,3.29-3.6,3.5-4.49-1.07-4.72-2.81S522.94,315.41,525.2,315.24Z" transform="translate(-278.56 -246.78)"/><path class="cls-6" d="M504.1,313.32c2.22,0,3.94,1.51,3.8,3.34s-2.16,3.43-4.51,3.41-4.06-1.62-3.79-3.52S501.85,313.3,504.1,313.32Z" transform="translate(-278.56 -246.78)"/><path class="cls-4" d="M518,284.27a4.07,4.07,0,0,1,4.28.91c.94,1.12.5,2.53-1,3.15a4,4,0,0,1-4.43-1C515.94,286.15,516.49,284.81,518,284.27Z" transform="translate(-278.56 -246.78)"/><path class="cls-4" d="M515,290.63a4.27,4.27,0,0,1,5,1.11c1.07,1.41.5,3.21-1.31,4a4.37,4.37,0,0,1-5.18-1.38C512.48,293.25,513.2,291.05,515,290.63Z" transform="translate(-278.56 -246.78)"/><path class="cls-4" d="M499.07,302.74a3.65,3.65,0,0,1,4.72,1.45,3.37,3.37,0,0,1-1.88,4.53,3.64,3.64,0,0,1-4.91-1.56A3.44,3.44,0,0,1,499.07,302.74Z" transform="translate(-278.56 -246.78)"/><path class="cls-4" d="M488.58,320.46c.52-1.21,2.66-1.81,4.81-1.33s3.57,1.87,3.12,3.13-2.66,1.91-4.91,1.41S488.06,321.71,488.58,320.46Z" transform="translate(-278.56 -246.78)"/><path class="cls-4" d="M484.41,309.54a4.46,4.46,0,0,1,5.3-1,2.92,2.92,0,0,1,.83,4.52,4.43,4.43,0,0,1-5.49,1.13A2.93,2.93,0,0,1,484.41,309.54Z" transform="translate(-278.56 -246.78)"/><path class="cls-4" d="M530.29,251.58c.87.18,1.42.52,1.21.75a2.79,2.79,0,0,1-2,.09c-.87-.19-1.4-.53-1.17-.76A2.84,2.84,0,0,1,530.29,251.58Z" transform="translate(-278.56 -246.78)"/><path class="cls-4" d="M534.3,252.53a2.19,2.19,0,0,1,1.34.12c.52.18.75.43.52.55a2.12,2.12,0,0,1-1.34-.12C534.3,252.89,534.08,252.65,534.3,252.53Z" transform="translate(-278.56 -246.78)"/><path class="cls-5" d="M534.21,257.78c1.36.2,2.36.86,2.23,1.48s-1.42,1-2.83.79-2.37-.9-2.18-1.52S532.86,257.58,534.21,257.78Z" transform="translate(-278.56 -246.78)"/><path class="cls-4" d="M540.66,254.87a3.43,3.43,0,0,1,2.05.48c.7.39.92.82.47,1a3.39,3.39,0,0,1-2.08-.5C540.41,255.4,540.21,255,540.66,254.87Z" transform="translate(-278.56 -246.78)"/><path class="cls-4" d="M546.11,258.55a3.61,3.61,0,0,1,2.4.49c.7.44.74.93.09,1.1a3.56,3.56,0,0,1-2.45-.51C545.47,259.19,545.46,258.7,546.11,258.55Z" transform="translate(-278.56 -246.78)"/><path class="cls-7" d="M460.77,300.53a2.69,2.69,0,0,1-3.64-.68,2.3,2.3,0,0,1,1-3.24,2.72,2.72,0,0,1,3.53.64A2.27,2.27,0,0,1,460.77,300.53Z" transform="translate(-278.56 -246.78)"/><path class="cls-7" d="M492.51,302.78c-2.2,1-4.6.42-5.3-1.25s.49-3.64,2.58-4.53,4.32-.39,5.09,1.13S494.66,301.79,492.51,302.78Z" transform="translate(-278.56 -246.78)"/><path class="cls-7" d="M480.83,287.69c-2.09.19-3.5-.85-3.15-2.28s2.22-2.63,4.2-2.8,3.36.77,3.14,2.13S482.92,287.5,480.83,287.69Z" transform="translate(-278.56 -246.78)"/><path class="cls-7" d="M472.44,287.09c-1.89.46-3.46-.23-3.45-1.53s1.48-2.6,3.28-3,3.3.21,3.4,1.42S474.32,286.63,472.44,287.09Z" transform="translate(-278.56 -246.78)"/><path class="cls-7" d="M460.63,280.64c-1.3.38-2.43,0-2.52-.89s.86-1.81,2.13-2.18,2.34,0,2.46.85S461.91,280.26,460.63,280.64Z" transform="translate(-278.56 -246.78)"/><path class="cls-7" d="M458.17,276.68c-1,.21-1.7-.29-1.6-1.11a2.49,2.49,0,0,1,1.91-1.81c.95-.19,1.65.27,1.58,1.06A2.4,2.4,0,0,1,458.17,276.68Z" transform="translate(-278.56 -246.78)"/><path class="cls-7" d="M473.59,279.3c-1.26-.25-1.56-1.2-.7-2.09a4.53,4.53,0,0,1,3.73-1.14c1.22.24,1.59,1.14.79,2A4.45,4.45,0,0,1,473.59,279.3Z" transform="translate(-278.56 -246.78)"/><path class="cls-7" d="M500.84,280.75c-1.65.62-3.57.27-4.26-.76s.12-2.28,1.71-2.85,3.4-.24,4.12.72S502.47,280.15,500.84,280.75Z" transform="translate(-278.56 -246.78)"/><path class="cls-7" d="M484.69,258.38c-1,.26-2.13.11-2.41-.32s.31-1,1.32-1.2a2.64,2.64,0,0,1,2.37.31C486.28,257.59,485.72,258.13,484.69,258.38Z" transform="translate(-278.56 -246.78)"/><path class="cls-7" d="M479.21,267.1c-1.23.35-2.48.14-2.76-.44s.5-1.29,1.7-1.61,2.39-.14,2.71.41S480.44,266.76,479.21,267.1Z" transform="translate(-278.56 -246.78)"/><path class="cls-7" d="M503.68,274.44c-1.5.53-3.33.23-4-.67s0-2,1.48-2.44a3.92,3.92,0,0,1,3.9.62C505.78,272.79,505.18,273.92,503.68,274.44Z" transform="translate(-278.56 -246.78)"/><path class="cls-7" d="M500.5,254a2.91,2.91,0,0,1-2.29-.27c-.38-.35,0-.8.88-1a3,3,0,0,1,2.26.26C501.75,253.29,501.37,253.74,500.5,254Z" transform="translate(-278.56 -246.78)"/><path class="cls-7" d="M501.59,259.42a3.92,3.92,0,0,1-3.42-.45c-.56-.58,0-1.31,1.31-1.65a4.12,4.12,0,0,1,3.34.42C503.41,258.31,502.88,259.07,501.59,259.42Z" transform="translate(-278.56 -246.78)"/><path class="cls-7" d="M514.15,251.8c-.91,0-1.64-.3-1.64-.55s.72-.67,1.61-.67,1.62.27,1.64.61S515.06,251.81,514.15,251.8Z" transform="translate(-278.56 -246.78)"/><path class="cls-7" d="M531.92,253.35c.9.2,1.44.61,1.18.91a2.71,2.71,0,0,1-2.16.17c-.92-.21-1.42-.62-1.14-.91A2.75,2.75,0,0,1,531.92,253.35Z" transform="translate(-278.56 -246.78)"/><path class="cls-7" d="M537.55,254.09c.85.29,1.22.74.79,1A3.27,3.27,0,0,1,536,255c-.84-.31-1.18-.75-.75-1A3.34,3.34,0,0,1,537.55,254.09Z" transform="translate(-278.56 -246.78)"/><path class="cls-7" d="M514.14,254.73a4.66,4.66,0,0,1,3.51.46c.74.57.34,1.3-.92,1.62a4.61,4.61,0,0,1-3.62-.54C512.43,255.89,512.89,255.07,514.14,254.73Z" transform="translate(-278.56 -246.78)"/><path class="cls-7" d="M503,266.57c1.46-.41,3.15-.12,3.83.66s.05,1.82-1.44,2.27-3.31.13-3.95-.71S501.53,267,503,266.57Z" transform="translate(-278.56 -246.78)"/><path class="cls-7" d="M545.28,260.52a3.34,3.34,0,0,1,2.51.91c.45.57,0,1.07-.95,1.12a3.32,3.32,0,0,1-2.54-1C543.89,261,544.33,260.56,545.28,260.52Z" transform="translate(-278.56 -246.78)"/><path class="cls-7" d="M557.21,265.29a3.71,3.71,0,0,1,2.57,1c.64.65.49,1.23-.35,1.31a3.69,3.69,0,0,1-2.62-1.08C556.22,265.92,556.4,265.36,557.21,265.29Z" transform="translate(-278.56 -246.78)"/><path class="cls-7" d="M563.66,269.24a2.43,2.43,0,0,1,1.86,1.11c.25.55-.22.93-1,.84a2.42,2.42,0,0,1-1.86-1.15C562.41,269.51,562.88,269.15,563.66,269.24Z" transform="translate(-278.56 -246.78)"/><path class="cls-7" d="M557.05,285.45a3.82,3.82,0,0,1,3.94.17c1.28.81,1.58,2.07.65,2.81a3.79,3.79,0,0,1-4.09-.2C556.29,287.39,556.08,286.15,557.05,285.45Z" transform="translate(-278.56 -246.78)"/><path class="cls-7" d="M531.64,306.25a4.36,4.36,0,0,1,5.05,2,3,3,0,0,1-1.85,4.43,4.33,4.33,0,0,1-5.15-2.18A3,3,0,0,1,531.64,306.25Z" transform="translate(-278.56 -246.78)"/><path class="cls-7" d="M527,287.2a4.16,4.16,0,0,1,4.36.94,1.91,1.91,0,0,1-.68,3.24,4.06,4.06,0,0,1-4.5-1A1.91,1.91,0,0,1,527,287.2Z" transform="translate(-278.56 -246.78)"/><path class="cls-7" d="M545.67,256.47a2.3,2.3,0,0,1,1.45.3c.49.27.63.57.31.66a2.34,2.34,0,0,1-1.48-.31C545.47,256.85,545.35,256.56,545.67,256.47Z" transform="translate(-278.56 -246.78)"/><path class="cls-7" d="M455.27,266.81c-.51.12-.93.05-1-.16s.35-.49.85-.61.93-.06,1,.15S455.77,266.68,455.27,266.81Z" transform="translate(-278.56 -246.78)"/><path class="cls-4" d="M527.28,250.52c-.4-.08-.65-.22-.55-.32a1.38,1.38,0,0,1,.9,0c.4.08.65.22.55.32A1.31,1.31,0,0,1,527.28,250.52Z" transform="translate(-278.56 -246.78)"/><path class="cls-5" d="M477,308.54c1.34-.55,2.65-.16,2.93.9s-.6,2.45-2,3.05-2.74.16-3-1A3,3,0,0,1,477,308.54Z" transform="translate(-278.56 -246.78)"/><path class="cls-4" d="M489.13,251.2a1.73,1.73,0,0,1,1.2.05c.11.14-.24.35-.79.46a1.77,1.77,0,0,1-1.22-.06C488.22,251.51,488.58,251.3,489.13,251.2Z" transform="translate(-278.56 -246.78)"/><path class="cls-5" d="M572.82,299.83a2.26,2.26,0,0,1,2.37.52c.78.64.93,1.45.37,1.82a2.32,2.32,0,0,1-2.43-.53C572.37,301,572.24,300.19,572.82,299.83Z" transform="translate(-278.56 -246.78)"/><path class="cls-4" d="M566.79,274.12a2.22,2.22,0,0,1,1.76.3c.57.35.7.78.29,1a2.23,2.23,0,0,1-1.8-.3C566.48,274.74,566.37,274.3,566.79,274.12Z" transform="translate(-278.56 -246.78)"/><path class="cls-4" d="M552.56,258.14a1.92,1.92,0,0,1,1.31.17c.39.2.43.46.08.57a2,2,0,0,1-1.32-.17C552.24,258.5,552.21,258.25,552.56,258.14Z" transform="translate(-278.56 -246.78)"/><path class="cls-4" d="M495.9,250.33c-.44,0-.81,0-.83-.16s.32-.25.76-.29.82,0,.84.16S496.35,250.29,495.9,250.33Z" transform="translate(-278.56 -246.78)"/><path class="cls-4" d="M511.34,343.13a1.14,1.14,0,0,1-1.8,0,1.67,1.67,0,0,1,0-2.08,1.16,1.16,0,0,1,1.77,0A1.64,1.64,0,0,1,511.34,343.13Z" transform="translate(-278.56 -246.78)"/><path class="cls-4" d="M533.72,249.87a1.37,1.37,0,0,1-.83-.08c-.21-.11-.19-.25.05-.31a1.28,1.28,0,0,1,.82.08C534,249.66,534,249.8,533.72,249.87Z" transform="translate(-278.56 -246.78)"/><path class="cls-4" d="M479.17,255.19a1.28,1.28,0,0,1-.8.16c-.17,0-.09-.21.19-.35a1.31,1.31,0,0,1,.79-.15C479.52,254.9,479.44,255.06,479.17,255.19Z" transform="translate(-278.56 -246.78)"/><path class="cls-4" d="M567.75,267.67a1.73,1.73,0,0,1-1.26-.17c-.41-.21-.5-.49-.23-.62a1.7,1.7,0,0,1,1.23.16C567.91,267.25,568,267.53,567.75,267.67Z" transform="translate(-278.56 -246.78)"/><path class="cls-4" d="M469,313.08c-1,.95-3,.8-4.32-.34s-1.49-2.71-.46-3.59a3.45,3.45,0,0,1,4.17.32C469.68,310.52,470,312.15,469,313.08Z" transform="translate(-278.56 -246.78)"/><path class="cls-4" d="M508.51,249.08c-.41,0-.72-.08-.71-.16s.33-.16.73-.16.72.07.71.16S508.91,249.09,508.51,249.08Z" transform="translate(-278.56 -246.78)"/><path class="cls-4" d="M451.71,280.17c-.61.18-1.11.07-1.14-.24s.46-.71,1.05-.88,1.12-.09,1.14.22S452.32,280,451.71,280.17Z" transform="translate(-278.56 -246.78)"/><path class="cls-4" d="M499.55,248.2a1.07,1.07,0,0,1-.72-.08c-.13-.1,0-.23.28-.29a1.07,1.07,0,0,1,.72.08C500,248,499.83,248.14,499.55,248.2Z" transform="translate(-278.56 -246.78)"/><path class="cls-4" d="M485.67,250.65a.93.93,0,0,1-.75-.09c-.09-.11.08-.26.4-.32a1,1,0,0,1,.75.08C486.16,250.44,486,250.58,485.67,250.65Z" transform="translate(-278.56 -246.78)"/><path class="cls-4" d="M578.11,315.28c-.46.39-1.46.17-2.22-.48s-.95-1.5-.47-1.86,1.45-.15,2.18.47S578.59,314.9,578.11,315.28Z" transform="translate(-278.56 -246.78)"/><path class="cls-4" d="M556.18,262.87a2.33,2.33,0,0,1,1.53.62c.44.4.46.76,0,.81a2.38,2.38,0,0,1-1.56-.64C555.77,263.27,555.76,262.91,556.18,262.87Z" transform="translate(-278.56 -246.78)"/><path class="cls-4" d="M476.64,322.11c-.9.45-1.77.19-2-.55a2.07,2.07,0,0,1,1.24-2.13c.86-.44,1.72-.19,1.93.56A2,2,0,0,1,476.64,322.11Z" transform="translate(-278.56 -246.78)"/><path class="cls-4" d="M502.13,264.11c.77,0,1.42.28,1.43.7s-.65.81-1.45.85-1.46-.28-1.44-.72S501.34,264.16,502.13,264.11Z" transform="translate(-278.56 -246.78)"/><path class="cls-4" d="M544,266.38a2.46,2.46,0,0,1,2,.75c.32.46-.08.87-.88.91a2.42,2.42,0,0,1-2-.77C542.78,266.82,543.18,266.42,544,266.38Z" transform="translate(-278.56 -246.78)"/><path class="cls-4" d="M537.64,322.88a2.42,2.42,0,0,1,2.82,1.18c.35.93-.37,1.9-1.62,2.19A2.42,2.42,0,0,1,536,325C535.69,324.08,536.41,323.13,537.64,322.88Z" transform="translate(-278.56 -246.78)"/><path class="cls-4" d="M578.36,287.59a1.76,1.76,0,0,1-1.64-.27c-.55-.36-.73-.82-.38-1a1.76,1.76,0,0,1,1.61.27C578.51,286.91,578.7,287.37,578.36,287.59Z" transform="translate(-278.56 -246.78)"/><path class="cls-4" d="M443.9,301.87c-.82.31-1.47.14-1.43-.39s.73-1.18,1.54-1.47,1.44-.13,1.42.37S444.72,301.57,443.9,301.87Z" transform="translate(-278.56 -246.78)"/><path class="cls-4" d="M523.23,247.16a1.28,1.28,0,0,1-.76-.08c-.17-.09-.12-.22.12-.27a1.33,1.33,0,0,1,.75.07C523.52,247,523.47,247.1,523.23,247.16Z" transform="translate(-278.56 -246.78)"/><path class="cls-4" d="M512.58,249.07c-.51,0-.89-.09-.88-.2s.41-.18.9-.19.89.09.88.2S513.07,249.08,512.58,249.07Z" transform="translate(-278.56 -246.78)"/><path class="cls-7" d="M510.12,262.57c-1.08-.05-2-.45-2-.83s.87-1,1.93-1,1.94.4,2,.92S511.21,262.58,510.12,262.57Z" transform="translate(-278.56 -246.78)"/><path class="cls-4" d="M511.73,254a2.84,2.84,0,0,1-2.23-.27c-.42-.35-.12-.8.66-1a2.82,2.82,0,0,1,2.18.26C512.79,253.4,512.51,253.81,511.73,254Z" transform="translate(-278.56 -246.78)"/><path class="cls-5" d="M511.2,250.29c-.83,0-1.57-.11-1.66-.34s.51-.44,1.32-.48,1.55.12,1.64.34S512,250.25,511.2,250.29Z" transform="translate(-278.56 -246.78)"/><path class="cls-6" d="M514.51,323c1.76,0,3.12,1,3,2.17s-1.7,2.21-3.56,2.2-3.21-1.06-3-2.29S512.74,323,514.51,323Z" transform="translate(-278.56 -246.78)"/><path class="cls-4" d="M514.42,263.23a3.16,3.16,0,0,1,2.73.45c.6.53.35,1.22-.58,1.52a3.16,3.16,0,0,1-2.8-.48C513.2,264.18,513.5,263.51,514.42,263.23Z" transform="translate(-278.56 -246.78)"/><path class="cls-4" d="M510.4,272.86c-1.61.41-3.48,0-4.17-.93s.08-1.91,1.64-2.27a4.4,4.4,0,0,1,4,.89C512.64,271.42,512,272.47,510.4,272.86Z" transform="translate(-278.56 -246.78)"/><path class="cls-4" d="M510,266.37a4.12,4.12,0,0,1-3.92-1.08c-.66-.9,0-1.86,1.43-2.15a4.21,4.21,0,0,1,3.81,1C512,265.05,511.42,266.05,510,266.37Z" transform="translate(-278.56 -246.78)"/><path class="cls-4" d="M513.48,284.15c-1.46.6-3.2.25-3.86-.76s0-2.2,1.45-2.74a3.34,3.34,0,0,1,3.74.71C515.51,282.31,514.92,283.57,513.48,284.15Z" transform="translate(-278.56 -246.78)"/><path class="cls-4" d="M513.8,276.23a2.18,2.18,0,0,1-2.39-1c-.23-.67.42-1.33,1.44-1.48a2.22,2.22,0,0,1,2.31.91C515.44,275.37,514.84,276.06,513.8,276.23Z" transform="translate(-278.56 -246.78)"/><path class="cls-4" d="M514.18,276.07a2.89,2.89,0,0,1-2.79-.71c-.46-.63,0-1.31,1.05-1.53a3,3,0,0,1,2.71.69C515.64,275.13,515.22,275.83,514.18,276.07Z" transform="translate(-278.56 -246.78)"/><path class="cls-4" d="M511.92,302.08a4.15,4.15,0,0,1-4.94-1.23c-.94-1.4-.27-3.08,1.43-3.77a4.21,4.21,0,0,1,4.8,1.17C514.22,299.62,513.67,301.33,511.92,302.08Z" transform="translate(-278.56 -246.78)"/><path class="cls-6" d="M533.18,329.25c.57-.15,1.07.09,1.12.53a1.21,1.21,0,0,1-1,1.11c-.59.16-1.11-.1-1.14-.56A1.18,1.18,0,0,1,533.18,329.25Z" transform="translate(-278.56 -246.78)"/></svg>